<svg width="232" height="101" viewBox="0 0 232 101" fill="none" xmlns="http://www.w3.org/2000/svg">
<g filter="url(#filter0_d)">
<path d="M110.09 41.4648C110.09 40.8633 109.875 40.3945 109.445 40.0586C109.023 39.7227 108.277 39.375 107.207 39.0156C106.137 38.6562 105.262 38.3086 104.582 37.9727C102.371 36.8867 101.266 35.3945 101.266 33.4961C101.266 32.5508 101.539 31.7188 102.086 31C102.641 30.2734 103.422 29.7109 104.43 29.3125C105.438 28.9062 106.57 28.7031 107.828 28.7031C109.055 28.7031 110.152 28.9219 111.121 29.3594C112.098 29.7969 112.855 30.4219 113.395 31.2344C113.934 32.0391 114.203 32.9609 114.203 34H110.102C110.102 33.3047 109.887 32.7656 109.457 32.3828C109.035 32 108.461 31.8086 107.734 31.8086C107 31.8086 106.418 31.9727 105.988 32.3008C105.566 32.6211 105.355 33.0312 105.355 33.5312C105.355 33.9688 105.59 34.3672 106.059 34.7266C106.527 35.0781 107.352 35.4453 108.531 35.8281C109.711 36.2031 110.68 36.6094 111.438 37.0469C113.281 38.1094 114.203 39.5742 114.203 41.4414C114.203 42.9336 113.641 44.1055 112.516 44.957C111.391 45.8086 109.848 46.2344 107.887 46.2344C106.504 46.2344 105.25 45.9883 104.125 45.4961C103.008 44.9961 102.164 44.3164 101.594 43.457C101.031 42.5898 100.75 41.5938 100.75 40.4688H104.875C104.875 41.3828 105.109 42.0586 105.578 42.4961C106.055 42.9258 106.824 43.1406 107.887 43.1406C108.566 43.1406 109.102 42.9961 109.492 42.707C109.891 42.4102 110.09 41.9961 110.09 41.4648ZM121.715 28.9375L125.523 40.8086L129.32 28.9375H134.734V46H130.609V42.0156L131.008 33.8594L126.883 46H124.164L120.027 33.8477L120.426 42.0156V46H116.312V28.9375H121.715ZM147.262 42.8125H141.625L140.641 46H136.246L142.504 28.9375H146.371L152.676 46H148.258L147.262 42.8125ZM142.609 39.6367H146.277L144.438 33.7188L142.609 39.6367ZM160.27 39.9766H158.043V46H153.93V28.9375H160.645C162.668 28.9375 164.25 29.3867 165.391 30.2852C166.531 31.1836 167.102 32.4531 167.102 34.0938C167.102 35.2812 166.859 36.2656 166.375 37.0469C165.898 37.8281 165.148 38.4609 164.125 38.9453L167.688 45.8242V46H163.281L160.27 39.9766ZM158.043 36.8008H160.645C161.426 36.8008 162.012 36.5977 162.402 36.1914C162.801 35.7773 163 35.2031 163 34.4688C163 33.7344 162.801 33.1602 162.402 32.7461C162.004 32.3242 161.418 32.1133 160.645 32.1133H158.043V36.8008ZM182.395 32.1133H177.273V46H173.16V32.1133H168.133V28.9375H182.395V32.1133ZM203.219 40.2227C203.164 41.4102 202.844 42.4609 202.258 43.375C201.672 44.2812 200.848 44.9844 199.785 45.4844C198.73 45.9844 197.523 46.2344 196.164 46.2344C193.922 46.2344 192.156 45.5039 190.867 44.043C189.578 42.582 188.934 40.5195 188.934 37.8555V37.0117C188.934 35.3398 189.223 33.8789 189.801 32.6289C190.387 31.3711 191.227 30.4023 192.32 29.7227C193.414 29.0352 194.68 28.6914 196.117 28.6914C198.188 28.6914 199.852 29.2383 201.109 30.332C202.367 31.418 203.082 32.918 203.254 34.832H199.152C199.121 33.793 198.859 33.0469 198.367 32.5938C197.875 32.1406 197.125 31.9141 196.117 31.9141C195.094 31.9141 194.344 32.2969 193.867 33.0625C193.391 33.8281 193.141 35.0508 193.117 36.7305V37.9375C193.117 39.7578 193.344 41.0586 193.797 41.8398C194.258 42.6211 195.047 43.0117 196.164 43.0117C197.109 43.0117 197.832 42.7891 198.332 42.3438C198.832 41.8984 199.098 41.1914 199.129 40.2227H203.219Z" fill="#7D64FE"/>
</g>
<g filter="url(#filter1_d)">
<path d="M115.094 68.2227C115.039 69.4102 114.719 70.4609 114.133 71.375C113.547 72.2812 112.723 72.9844 111.66 73.4844C110.605 73.9844 109.398 74.2344 108.039 74.2344C105.797 74.2344 104.031 73.5039 102.742 72.043C101.453 70.582 100.809 68.5195 100.809 65.8555V65.0117C100.809 63.3398 101.098 61.8789 101.676 60.6289C102.262 59.3711 103.102 58.4023 104.195 57.7227C105.289 57.0352 106.555 56.6914 107.992 56.6914C110.062 56.6914 111.727 57.2383 112.984 58.332C114.242 59.418 114.957 60.918 115.129 62.832H111.027C110.996 61.793 110.734 61.0469 110.242 60.5938C109.75 60.1406 109 59.9141 107.992 59.9141C106.969 59.9141 106.219 60.2969 105.742 61.0625C105.266 61.8281 105.016 63.0508 104.992 64.7305V65.9375C104.992 67.7578 105.219 69.0586 105.672 69.8398C106.133 70.6211 106.922 71.0117 108.039 71.0117C108.984 71.0117 109.707 70.7891 110.207 70.3438C110.707 69.8984 110.973 69.1914 111.004 68.2227H115.094ZM131.488 65.8203C131.488 67.4844 131.18 68.957 130.562 70.2383C129.945 71.5195 129.066 72.5078 127.926 73.2031C126.793 73.8906 125.5 74.2344 124.047 74.2344C122.594 74.2344 121.305 73.9023 120.18 73.2383C119.055 72.5664 118.176 71.6094 117.543 70.3672C116.918 69.125 116.59 67.6992 116.559 66.0898V65.1289C116.559 63.457 116.863 61.9844 117.473 60.7109C118.09 59.4297 118.969 58.4414 120.109 57.7461C121.258 57.0508 122.562 56.7031 124.023 56.7031C125.469 56.7031 126.758 57.0469 127.891 57.7344C129.023 58.4219 129.902 59.4023 130.527 60.6758C131.16 61.9414 131.48 63.3945 131.488 65.0352V65.8203ZM127.305 65.1055C127.305 63.4102 127.02 62.125 126.449 61.25C125.887 60.3672 125.078 59.9258 124.023 59.9258C121.961 59.9258 120.871 61.4727 120.754 64.5664L120.742 65.8203C120.742 67.4922 121.02 68.7773 121.574 69.6758C122.129 70.5742 122.953 71.0234 124.047 71.0234C125.086 71.0234 125.887 70.582 126.449 69.6992C127.012 68.8164 127.297 67.5469 127.305 65.8906V65.1055ZM139.012 56.9375L142.82 68.8086L146.617 56.9375H152.031V74H147.906V70.0156L148.305 61.8594L144.18 74H141.461L137.324 61.8477L137.723 70.0156V74H133.609V56.9375H139.012ZM158.77 68.2109V74H154.656V56.9375H161.465C162.77 56.9375 163.922 57.1797 164.922 57.6641C165.93 58.1406 166.707 58.8242 167.254 59.7148C167.809 60.5977 168.086 61.6016 168.086 62.7266C168.086 64.3906 167.488 65.7227 166.293 66.7227C165.105 67.7148 163.473 68.2109 161.395 68.2109H158.77ZM158.77 65.0352H161.465C162.262 65.0352 162.867 64.8359 163.281 64.4375C163.703 64.0391 163.914 63.4766 163.914 62.75C163.914 61.9531 163.699 61.3164 163.27 60.8398C162.84 60.3633 162.254 60.1211 161.512 60.1133H158.77V65.0352ZM177.895 70.8125H172.258L171.273 74H166.879L173.137 56.9375H177.004L183.309 74H178.891L177.895 70.8125ZM173.242 67.6367H176.91L175.07 61.7188L173.242 67.6367ZM198.812 74H194.723L188.676 63.3828V74H184.562V56.9375H188.676L194.711 67.5547V56.9375H198.812V74ZM207.332 64.3438L210.473 56.9375H214.914L209.418 67.8711V74H205.246V67.8711L199.762 56.9375H204.18L207.332 64.3438Z" fill="#7D64FE"/>
</g>
<g filter="url(#filter2_d)">
<circle cx="56" cy="50" r="36.5" stroke="#7D64FE" stroke-width="5"/>
</g>
<g filter="url(#filter3_d)">
<path d="M63.2695 61.3945C63.2695 59.5898 62.625 58.1836 61.3359 57.1758C60.0703 56.168 57.832 55.125 54.6211 54.0469C51.4102 52.9688 48.7852 51.9258 46.7461 50.918C40.1133 47.6602 36.7969 43.1836 36.7969 37.4883C36.7969 34.6523 37.6172 32.1562 39.2578 30C40.9219 27.8203 43.2656 26.1328 46.2891 24.9375C49.3125 23.7187 52.7109 23.1094 56.4844 23.1094C60.1641 23.1094 63.457 23.7656 66.3633 25.0781C69.293 26.3906 71.5664 28.2656 73.1836 30.7031C74.8008 33.1172 75.6094 35.8828 75.6094 39H63.3047C63.3047 36.9141 62.6602 35.2969 61.3711 34.1484C60.1055 33 58.3828 32.4258 56.2031 32.4258C54 32.4258 52.2539 32.918 50.9648 33.9023C49.6992 34.8633 49.0664 36.0938 49.0664 37.5938C49.0664 38.9062 49.7695 40.1016 51.1758 41.1797C52.582 42.2344 55.0547 43.3359 58.5938 44.4844C62.1328 45.6094 65.0391 46.8281 67.3125 48.1406C72.8438 51.3281 75.6094 55.7227 75.6094 61.3242C75.6094 65.8008 73.9219 69.3164 70.5469 71.8711C67.1719 74.4258 62.543 75.7031 56.6602 75.7031C52.5117 75.7031 48.75 74.9648 45.375 73.4883C42.0234 71.9883 39.4922 69.9492 37.7812 67.3711C36.0938 64.7695 35.25 61.7812 35.25 58.4062H47.625C47.625 61.1484 48.3281 63.1758 49.7344 64.4883C51.1641 65.7773 53.4727 66.4219 56.6602 66.4219C58.6992 66.4219 60.3047 65.9883 61.4766 65.1211C62.6719 64.2305 63.2695 62.9883 63.2695 61.3945Z" fill="#7D64FE"/>
</g>
<defs>
<filter id="filter0_d" x="96.75" y="28.6914" width="110.504" height="25.543" filterUnits="userSpaceOnUse" color-interpolation-filters="sRGB">
<feFlood flood-opacity="0" result="BackgroundImageFix"/>
<feColorMatrix in="SourceAlpha" type="matrix" values="0 0 0 0 0 0 0 0 0 0 0 0 0 0 0 0 0 0 127 0"/>
<feOffset dy="4"/>
<feGaussianBlur stdDeviation="2"/>
<feColorMatrix type="matrix" values="0 0 0 0 0 0 0 0 0 0 0 0 0 0 0 0 0 0 0.25 0"/>
<feBlend mode="normal" in2="BackgroundImageFix" result="effect1_dropShadow"/>
<feBlend mode="normal" in="SourceGraphic" in2="effect1_dropShadow" result="shape"/>
</filter>
<filter id="filter1_d" x="96.8086" y="56.6914" width="122.105" height="25.543" filterUnits="userSpaceOnUse" color-interpolation-filters="sRGB">
<feFlood flood-opacity="0" result="BackgroundImageFix"/>
<feColorMatrix in="SourceAlpha" type="matrix" values="0 0 0 0 0 0 0 0 0 0 0 0 0 0 0 0 0 0 127 0"/>
<feOffset dy="4"/>
<feGaussianBlur stdDeviation="2"/>
<feColorMatrix type="matrix" values="0 0 0 0 0 0 0 0 0 0 0 0 0 0 0 0 0 0 0.25 0"/>
<feBlend mode="normal" in2="BackgroundImageFix" result="effect1_dropShadow"/>
<feBlend mode="normal" in="SourceGraphic" in2="effect1_dropShadow" result="shape"/>
</filter>
<filter id="filter2_d" x="13" y="11" width="86" height="86" filterUnits="userSpaceOnUse" color-interpolation-filters="sRGB">
<feFlood flood-opacity="0" result="BackgroundImageFix"/>
<feColorMatrix in="SourceAlpha" type="matrix" values="0 0 0 0 0 0 0 0 0 0 0 0 0 0 0 0 0 0 127 0"/>
<feOffset dy="4"/>
<feGaussianBlur stdDeviation="2"/>
<feColorMatrix type="matrix" values="0 0 0 0 0 0 0 0 0 0 0 0 0 0 0 0 0 0 0.25 0"/>
<feBlend mode="normal" in2="BackgroundImageFix" result="effect1_dropShadow"/>
<feBlend mode="normal" in="SourceGraphic" in2="effect1_dropShadow" result="shape"/>
</filter>
<filter id="filter3_d" x="31.25" y="23.1094" width="48.3594" height="60.5938" filterUnits="userSpaceOnUse" color-interpolation-filters="sRGB">
<feFlood flood-opacity="0" result="BackgroundImageFix"/>
<feColorMatrix in="SourceAlpha" type="matrix" values="0 0 0 0 0 0 0 0 0 0 0 0 0 0 0 0 0 0 127 0"/>
<feOffset dy="4"/>
<feGaussianBlur stdDeviation="2"/>
<feColorMatrix type="matrix" values="0 0 0 0 0 0 0 0 0 0 0 0 0 0 0 0 0 0 0.25 0"/>
<feBlend mode="normal" in2="BackgroundImageFix" result="effect1_dropShadow"/>
<feBlend mode="normal" in="SourceGraphic" in2="effect1_dropShadow" result="shape"/>
</filter>
</defs>
</svg>
