<?xml version="1.0" encoding="utf-8"?>
<!-- Generator: Adobe Illustrator 21.0.0, SVG Export Plug-In . SVG Version: 6.00 Build 0)  -->
<svg version="1.1" id="Слой_1" xmlns="http://www.w3.org/2000/svg" xmlns:xlink="http://www.w3.org/1999/xlink" x="0px" y="0px"
	 viewBox="0 0 236 236" style="enable-background:new 0 0 236 236;" xml:space="preserve">
<style type="text/css">
	.st0{fill:#CAD3D8;}
	.st1{clip-path:url(#SVGID_2_);fill:url(#SVGID_3_);}
	.st2{fill:#667DB7;}
	.st3{fill:url(#SVGID_4_);}
	.st4{fill:url(#SVGID_5_);}
	.st5{fill:url(#SVGID_6_);}
	.st6{fill:url(#SVGID_7_);}
	.st7{fill:url(#SVGID_8_);}
</style>
<g>
	<path class="st0" d="M3.6,17.1v108.4c0,0,70.7-20.4,118.6-39.1S224.9,35,224.9,35l3.9-3.1V10.5l-6.7-3H11.9L3.6,17.1z"/>
	<g>
		<defs>
			<path id="SVGID_1_" d="M11.7,221.5c-2.4-2.9-1.6-8.8-1.6-12.9V26.7c0-5-0.2-10.9,3.2-14c3-2.7,9.4-3,13.8-3h181.9
				c4.5,0,9.8,0.2,12.8,3c3.3,3.1,4.2,9.1,4.2,14v181.9c0,4.4,0.4,10.9-2.4,13.9c-3.1,3.4-9.6,3.1-14.6,3.1H27.1
				C21.8,225.5,14.8,225.2,11.7,221.5 M24.1,0C10.8,0,0,10.8,0,24.1v187.7C0,225.2,10.8,236,24.1,236h187.7
				c13.3,0,24.1-10.8,24.1-24.1V24.1C236,10.8,225.2,0,211.9,0H24.1z"/>
		</defs>
		<clipPath id="SVGID_2_">
			<use xlink:href="#SVGID_1_"  style="overflow:visible;"/>
		</clipPath>
		
			<linearGradient id="SVGID_3_" gradientUnits="userSpaceOnUse" x1="-31.1844" y1="268.6079" x2="-30.1844" y2="268.6079" gradientTransform="matrix(252.7447 -258.906 -258.906 -252.7447 77420.4141 60059.8789)">
			<stop  offset="0" style="stop-color:#667DB7"/>
			<stop  offset="0.5198" style="stop-color:#99C4DB"/>
			<stop  offset="1" style="stop-color:#667DB7"/>
		</linearGradient>
		<polygon class="st1" points="-118,120.8 115.2,-118 354,115.2 120.8,354 		"/>
	</g>
	<path class="st2" d="M159.3,225.5H27.1c-5.3,0-12.2-0.3-15.3-4.1c-2.4-2.9-1.6-8.8-1.6-12.9v-66.5L0,134.9v77
		C0,225.2,10.8,236,24.1,236h154L159.3,225.5z"/>
	<g>
		<radialGradient id="SVGID_4_" cx="54.4511" cy="116.5056" r="21.8648" gradientUnits="userSpaceOnUse">
			<stop  offset="0" style="stop-color:#99C4DB"/>
			<stop  offset="0.5405" style="stop-color:#7C9BC6"/>
			<stop  offset="1" style="stop-color:#667DB7"/>
		</radialGradient>
		<path class="st3" d="M46.7,121v14.4l-3.7,3.8l-3.6-3.7v-14.4l3.6-3.7L46.7,121z M47.1,112.7h14.4l3.8,3.7l-3.7,3.6H47.2l-3.7-3.6
			L47.1,112.7z M47.2,89.5h14.4l3.8,3.7l-3.7,3.6H47.3l-3.7-3.6L47.2,89.5z M47.3,136.3h14.4l3.8,3.7l-3.7,3.6H47.3l-3.7-3.6
			L47.3,136.3z M69.5,97.5v14.4l-3.7,3.8l-3.6-3.7V97.5l3.6-3.7L69.5,97.5z"/>
		<radialGradient id="SVGID_5_" cx="91.2033" cy="116.5964" r="21.7633" gradientUnits="userSpaceOnUse">
			<stop  offset="0" style="stop-color:#99C4DB"/>
			<stop  offset="0.5405" style="stop-color:#7C9BC6"/>
			<stop  offset="1" style="stop-color:#667DB7"/>
		</radialGradient>
		<path class="st4" d="M83.4,93.5L83.3,112l-3.7,3.8L76,112l0.1-18.4l3.6-3.7L83.4,93.5z M83.9,112.7h14.4l3.8,3.7l-3.7,3.6H84
			l-3.7-3.6L83.9,112.7z M106.4,93.5l-0.1,18.4l-3.7,3.8L99,112l0.1-18.4l3.6-3.7L106.4,93.5z M106.3,121v18.6l-3.7,3.8l-3.6-3.7
			v-18.6l3.6-3.7L106.3,121z"/>
		<radialGradient id="SVGID_6_" cx="116.7394" cy="120.0266" r="9.7036" gradientUnits="userSpaceOnUse">
			<stop  offset="0" style="stop-color:#99C4DB"/>
			<stop  offset="0.5405" style="stop-color:#7C9BC6"/>
			<stop  offset="1" style="stop-color:#667DB7"/>
		</radialGradient>
		<path class="st5" d="M119.1,108.2c0.8,0.8,1.1,1.8,1.1,2.9c0,1.1-0.4,2.1-1.1,2.9s-1.7,1.2-2.8,1.2c-1.1,0-2-0.4-2.7-1.2
			s-1.1-1.8-1.1-2.9c0-1.1,0.4-2.1,1.1-2.9s1.7-1.2,2.7-1.2C117.5,107,118.4,107.4,119.1,108.2z M119.9,126.1
			c0.8,0.8,1.1,1.8,1.1,2.9c0,1.1-0.4,2.1-1.1,2.9c-0.8,0.8-1.7,1.2-2.8,1.2c-1.1,0-2-0.4-2.7-1.2c-0.8-0.8-1.1-1.8-1.1-2.9
			c0-1.1,0.4-2.1,1.1-2.9c0.8-0.8,1.7-1.2,2.7-1.2C118.2,124.9,119.1,125.3,119.9,126.1z"/>
		<radialGradient id="SVGID_7_" cx="142.8017" cy="116.5056" r="21.9023" gradientUnits="userSpaceOnUse">
			<stop  offset="0" style="stop-color:#99C4DB"/>
			<stop  offset="0.5405" style="stop-color:#7C9BC6"/>
			<stop  offset="1" style="stop-color:#667DB7"/>
		</radialGradient>
		<path class="st6" d="M134.9,97.5V112l-3.7,3.8l-3.6-3.7V97.5l3.6-3.7L134.9,97.5z M135.1,121v14.4l-3.7,3.8l-3.6-3.7v-14.4
			l3.6-3.7L135.1,121z M135.7,89.5h14.4l3.8,3.7l-3.7,3.6h-14.4l-3.7-3.6L135.7,89.5z M135.7,136.3h14.4l3.8,3.7l-3.7,3.6h-14.4
			l-3.7-3.6L135.7,136.3z M157.9,97.5v14.4l-3.7,3.8l-3.6-3.7V97.5l3.6-3.7L157.9,97.5z M157.9,121v14.4l-3.7,3.8l-3.6-3.7v-14.4
			l3.6-3.7L157.9,121z"/>
		<radialGradient id="SVGID_8_" cx="179.6085" cy="116.5056" r="21.9023" gradientUnits="userSpaceOnUse">
			<stop  offset="0" style="stop-color:#99C4DB"/>
			<stop  offset="0.5405" style="stop-color:#7C9BC6"/>
			<stop  offset="1" style="stop-color:#667DB7"/>
		</radialGradient>
		<path class="st7" d="M171.7,97.5V112l-3.7,3.8l-3.6-3.7V97.5l3.6-3.7L171.7,97.5z M171.9,121v14.4l-3.7,3.8l-3.6-3.7v-14.4
			l3.6-3.7L171.9,121z M172.5,89.5h14.4l3.8,3.7l-3.7,3.6h-14.4l-3.7-3.6L172.5,89.5z M172.5,136.3h14.4l3.8,3.7l-3.7,3.6h-14.4
			l-3.7-3.6L172.5,136.3z M194.7,97.5v14.4l-3.7,3.8l-3.6-3.7V97.5l3.6-3.7L194.7,97.5z M194.7,121v14.4l-3.7,3.8l-3.6-3.7v-14.4
			l3.6-3.7L194.7,121z"/>
	</g>
</g>
</svg>
