<?xml version="1.0" encoding="utf-8"?>
<!-- Generator: Adobe Illustrator 21.0.0, SVG Export Plug-In . SVG Version: 6.00 Build 0)  -->
<svg version="1.1" id="Слой_1" xmlns="http://www.w3.org/2000/svg" xmlns:xlink="http://www.w3.org/1999/xlink" x="0px" y="0px"
	 viewBox="0 0 236 236" style="enable-background:new 0 0 236 236;" xml:space="preserve">
<style type="text/css">
	.st0{fill:#CAD3D8;}
	.st1{clip-path:url(#SVGID_2_);fill:url(#SVGID_3_);}
	.st2{fill:#667DB7;}
	.st3{fill:url(#SVGID_4_);}
	.st4{fill:url(#SVGID_5_);}
	.st5{fill:url(#SVGID_6_);}
	.st6{fill:url(#SVGID_7_);}
	.st7{fill:url(#SVGID_8_);}
	.st8{fill:url(#SVGID_9_);}
	.st9{fill:url(#SVGID_10_);}
	.st10{fill:url(#SVGID_11_);}
	.st11{fill:url(#SVGID_12_);}
	.st12{fill:url(#SVGID_13_);}
</style>
<g>
	<path class="st0" d="M3.6,17.1v108.4c0,0,70.7-20.4,118.6-39.1S224.9,35,224.9,35l3.9-3.1V10.5l-6.7-3H11.9L3.6,17.1z"/>
	<g>
		<g>
			<defs>
				<path id="SVGID_1_" d="M11.7,221.5c-2.4-2.9-1.6-8.8-1.6-12.9V26.7c0-5-0.2-10.9,3.2-14c3-2.7,9.4-3,13.8-3h181.9
					c4.5,0,9.8,0.2,12.8,3c3.3,3.1,4.2,9.1,4.2,14v181.9c0,4.4,0.4,10.9-2.4,13.9c-3.1,3.4-9.6,3.1-14.6,3.1H27.1
					C21.8,225.5,14.8,225.2,11.7,221.5 M24.1,0C10.8,0,0,10.8,0,24.1v187.7C0,225.2,10.8,236,24.1,236h187.7
					c13.3,0,24.1-10.8,24.1-24.1V24.1C236,10.8,225.2,0,211.9,0H24.1z"/>
			</defs>
			<clipPath id="SVGID_2_">
				<use xlink:href="#SVGID_1_"  style="overflow:visible;"/>
			</clipPath>
			
				<linearGradient id="SVGID_3_" gradientUnits="userSpaceOnUse" x1="-31.3224" y1="268.4822" x2="-30.3224" y2="268.4822" gradientTransform="matrix(252.7447 -258.906 -258.906 -252.7447 77422.75 59992.3945)">
				<stop  offset="0" style="stop-color:#667DB7"/>
				<stop  offset="0.5198" style="stop-color:#99C4DB"/>
				<stop  offset="1" style="stop-color:#667DB7"/>
			</linearGradient>
			<polygon class="st1" points="-118,120.8 115.2,-118 354,115.2 120.8,354 			"/>
		</g>
		<path class="st2" d="M159.3,225.5H27.1c-5.3,0-12.2-0.3-15.3-4.1c-2.4-2.9-1.6-8.8-1.6-12.9v-66.5L0,134.9v77
			C0,225.2,10.8,236,24.1,236h154L159.3,225.5z"/>
	</g>
	<linearGradient id="SVGID_4_" gradientUnits="userSpaceOnUse" x1="209.4389" y1="74.1001" x2="131.4389" y2="74.1001">
		<stop  offset="0" style="stop-color:#667DB7"/>
		<stop  offset="0.2154" style="stop-color:#6A82BA"/>
		<stop  offset="0.4758" style="stop-color:#7491C1"/>
		<stop  offset="0.7582" style="stop-color:#86A9CD"/>
		<stop  offset="1" style="stop-color:#99C4DB"/>
	</linearGradient>
	<polygon class="st3" points="209.4,74.7 167.9,42 131.4,75.5 148.7,75.5 148.7,106.2 191.2,106.2 191.2,74.7 	"/>
	<g>
		<linearGradient id="SVGID_5_" gradientUnits="userSpaceOnUse" x1="191.1889" y1="124.7941" x2="131.4002" y2="124.7941">
			<stop  offset="0" style="stop-color:#667DB7"/>
			<stop  offset="0.2154" style="stop-color:#6A82BA"/>
			<stop  offset="0.4758" style="stop-color:#7491C1"/>
			<stop  offset="0.7582" style="stop-color:#86A9CD"/>
			<stop  offset="1" style="stop-color:#99C4DB"/>
		</linearGradient>
		<path class="st4" d="M178.9,138.7c9-14.4,12.2-27.7,12.2-27.7h-42.6c0,0,0.2-0.9-0.8,1.4c-1,2.1-8.1,14.3-16.4,26.3H178.9z"/>
		<linearGradient id="SVGID_6_" gradientUnits="userSpaceOnUse" x1="151.7514" y1="179.0451" x2="65.3391" y2="179.0451">
			<stop  offset="0" style="stop-color:#667DB7"/>
			<stop  offset="0.2154" style="stop-color:#6A82BA"/>
			<stop  offset="0.4758" style="stop-color:#7491C1"/>
			<stop  offset="0.7582" style="stop-color:#86A9CD"/>
			<stop  offset="1" style="stop-color:#99C4DB"/>
		</linearGradient>
		<path class="st5" d="M105.9,167.1L105.9,167.1c-3.9,3.6-7.6,6.5-10.2,8.5c-8.2,5.9-30.3,15.5-30.3,15.5s12.7,0.1,22.8-0.8
			c10.1-0.9,31.1-5.4,39.4-8.8c7.6-3.1,7.9-3.1,24.2-14.3L105.9,167.1z"/>
		<linearGradient id="SVGID_7_" gradientUnits="userSpaceOnUse" x1="175.7316" y1="152.8986" x2="111.0601" y2="152.8986">
			<stop  offset="0" style="stop-color:#667DB7"/>
			<stop  offset="0.2154" style="stop-color:#6A82BA"/>
			<stop  offset="0.4758" style="stop-color:#7491C1"/>
			<stop  offset="0.7582" style="stop-color:#86A9CD"/>
			<stop  offset="1" style="stop-color:#99C4DB"/>
		</linearGradient>
		<path class="st6" d="M128,143.6c-4.7,6.2-10.9,12.9-16.9,18.7l46.7,0c1.1-0.9,2.3-1.9,3.6-3c5.7-4.8,10.5-10.2,14.4-15.7H128z"/>
	</g>
	<g>
		<linearGradient id="SVGID_8_" gradientUnits="userSpaceOnUse" x1="199.1305" y1="176.0538" x2="159.3805" y2="175.8038">
			<stop  offset="0" style="stop-color:#667DB7"/>
			<stop  offset="0.2154" style="stop-color:#6A82BA"/>
			<stop  offset="0.4758" style="stop-color:#7491C1"/>
			<stop  offset="0.7582" style="stop-color:#86A9CD"/>
			<stop  offset="1" style="stop-color:#99C4DB"/>
		</linearGradient>
		<path class="st7" d="M190.1,179.3H186v-16.3h-5.4l-14.5,16.3v4.3h13.7v5.2h6.2v-5.2h4.1V179.3z M179.8,179.3h-7.7l7.7-8.8V179.3z"
			/>
		<linearGradient id="SVGID_9_" gradientUnits="userSpaceOnUse" x1="198.9707" y1="201.4598" x2="159.2207" y2="201.2098">
			<stop  offset="0" style="stop-color:#667DB7"/>
			<stop  offset="0.2154" style="stop-color:#6A82BA"/>
			<stop  offset="0.4758" style="stop-color:#7491C1"/>
			<stop  offset="0.7582" style="stop-color:#86A9CD"/>
			<stop  offset="1" style="stop-color:#99C4DB"/>
		</linearGradient>
		<path class="st8" d="M152.1,200.3c-0.7-0.4-1.9-0.8-3.4-1.1s-2.5-0.7-2.9-1.1c-0.3-0.3-0.5-0.6-0.5-1c0-0.4,0.2-0.7,0.5-1
			c0.5-0.4,1.3-0.6,2.2-0.6c0.9,0,1.6,0.2,2,0.5c0.4,0.4,0.7,0.9,0.9,1.8l3.2-0.1c-0.1-1.5-0.6-2.6-1.6-3.5c-1-0.9-2.5-1.3-4.5-1.3
			c-1.2,0-2.3,0.2-3.1,0.5c-0.9,0.4-1.5,0.9-2,1.6c-0.5,0.7-0.7,1.5-0.7,2.3c0,1.3,0.5,2.3,1.5,3.2c0.7,0.6,1.9,1.1,3.6,1.6
			c1.3,0.3,2.2,0.6,2.6,0.7c0.5,0.2,0.9,0.4,1.1,0.7c0.2,0.3,0.3,0.6,0.3,1c0,0.6-0.3,1.1-0.8,1.5c-0.5,0.4-1.3,0.7-2.3,0.7
			c-1,0-1.7-0.2-2.3-0.7c-0.6-0.5-1-1.3-1.1-2.3l-3.1,0.3c0.2,1.8,0.8,3.1,1.9,4c1.1,0.9,2.6,1.4,4.6,1.4c1.4,0,2.5-0.2,3.4-0.6
			c0.9-0.4,1.6-1,2.1-1.8c0.5-0.8,0.8-1.6,0.8-2.5c0-1-0.2-1.8-0.6-2.5C153.5,201.2,152.9,200.7,152.1,200.3z"/>
		<linearGradient id="SVGID_10_" gradientUnits="userSpaceOnUse" x1="198.9712" y1="201.3804" x2="159.2212" y2="201.1304">
			<stop  offset="0" style="stop-color:#667DB7"/>
			<stop  offset="0.2154" style="stop-color:#6A82BA"/>
			<stop  offset="0.4758" style="stop-color:#7491C1"/>
			<stop  offset="0.7582" style="stop-color:#86A9CD"/>
			<stop  offset="1" style="stop-color:#99C4DB"/>
		</linearGradient>
		<path class="st9" d="M166.1,193.5c-0.6-0.2-1.9-0.2-3.8-0.2h-5.1V209h3.2v-6h2.1c1.4,0,2.5-0.1,3.3-0.2c0.6-0.1,1.1-0.4,1.7-0.7
			c0.5-0.4,1-0.9,1.3-1.6c0.4-0.7,0.5-1.5,0.5-2.4c0-1.3-0.3-2.3-0.9-3.1C167.8,194.2,167,193.7,166.1,193.5z M165.7,199.4
			c-0.2,0.4-0.6,0.6-1,0.8c-0.4,0.2-1.3,0.2-2.5,0.2h-1.7v-4.5h1.5c1.1,0,1.9,0,2.3,0.1c0.5,0.1,0.9,0.3,1.3,0.7
			c0.3,0.4,0.5,0.8,0.5,1.4C166,198.6,165.9,199,165.7,199.4z"/>
		<linearGradient id="SVGID_11_" gradientUnits="userSpaceOnUse" x1="198.9719" y1="201.2678" x2="159.2219" y2="201.0178">
			<stop  offset="0" style="stop-color:#667DB7"/>
			<stop  offset="0.2154" style="stop-color:#6A82BA"/>
			<stop  offset="0.4758" style="stop-color:#7491C1"/>
			<stop  offset="0.7582" style="stop-color:#86A9CD"/>
			<stop  offset="1" style="stop-color:#99C4DB"/>
		</linearGradient>
		<polygon class="st10" points="175.1,202.1 183.1,202.1 183.1,199.4 175.1,199.4 175.1,195.9 183.6,195.9 183.6,193.2 171.9,193.2 
			171.9,209 183.9,209 183.9,206.4 175.1,206.4 		"/>
		<linearGradient id="SVGID_12_" gradientUnits="userSpaceOnUse" x1="198.9725" y1="201.1752" x2="159.2225" y2="200.9252">
			<stop  offset="0" style="stop-color:#667DB7"/>
			<stop  offset="0.2154" style="stop-color:#6A82BA"/>
			<stop  offset="0.4758" style="stop-color:#7491C1"/>
			<stop  offset="0.7582" style="stop-color:#86A9CD"/>
			<stop  offset="1" style="stop-color:#99C4DB"/>
		</linearGradient>
		<polygon class="st11" points="189.8,202.1 197.8,202.1 197.8,199.4 189.8,199.4 189.8,195.9 198.4,195.9 198.4,193.2 186.7,193.2 
			186.7,209 198.7,209 198.7,206.4 189.8,206.4 		"/>
		<linearGradient id="SVGID_13_" gradientUnits="userSpaceOnUse" x1="198.9729" y1="201.1009" x2="159.2229" y2="200.8509">
			<stop  offset="0" style="stop-color:#667DB7"/>
			<stop  offset="0.2154" style="stop-color:#6A82BA"/>
			<stop  offset="0.4758" style="stop-color:#7491C1"/>
			<stop  offset="0.7582" style="stop-color:#86A9CD"/>
			<stop  offset="1" style="stop-color:#99C4DB"/>
		</linearGradient>
		<path class="st12" d="M214.1,197.6c-0.3-1-0.8-1.9-1.5-2.6c-0.7-0.7-1.5-1.2-2.4-1.5c-0.7-0.2-1.7-0.3-3-0.3h-5.8V209h6
			c1.2,0,2.1-0.1,2.8-0.3c0.9-0.3,1.7-0.7,2.2-1.3c0.7-0.7,1.3-1.6,1.7-2.8c0.3-0.9,0.5-2.1,0.5-3.4
			C214.6,199.8,214.4,198.6,214.1,197.6z M211,204c-0.2,0.7-0.5,1.2-0.8,1.5c-0.3,0.3-0.8,0.5-1.3,0.7c-0.4,0.1-1,0.2-1.9,0.2h-2.4
			v-10.5h1.4c1.3,0,2.2,0.1,2.6,0.2c0.6,0.1,1.1,0.4,1.5,0.7c0.4,0.4,0.7,0.9,0.9,1.5c0.2,0.7,0.3,1.6,0.3,2.8
			C211.3,202.4,211.2,203.3,211,204z"/>
	</g>
</g>
</svg>
