<?xml version="1.0" encoding="utf-8"?>
<!-- Generator: Adobe Illustrator 21.0.0, SVG Export Plug-In . SVG Version: 6.00 Build 0)  -->
<svg version="1.1" id="Слой_1" xmlns="http://www.w3.org/2000/svg" xmlns:xlink="http://www.w3.org/1999/xlink" x="0px" y="0px"
	 viewBox="0 0 236 236" style="enable-background:new 0 0 236 236;" xml:space="preserve">
<style type="text/css">
	.st0{fill:#CAD3D8;}
	.st1{clip-path:url(#SVGID_2_);fill:url(#SVGID_3_);}
	.st2{fill:#667DB7;}
	.st3{fill:url(#SVGID_4_);}
	.st4{fill:url(#SVGID_5_);}
	.st5{fill:url(#SVGID_6_);}
	.st6{fill:url(#SVGID_7_);}
	.st7{fill:url(#SVGID_8_);}
	.st8{fill:url(#SVGID_9_);}
	.st9{fill:url(#SVGID_10_);}
	.st10{fill:url(#SVGID_11_);}
</style>
<g>
	<path class="st0" d="M3.6,17.1v108.4c0,0,70.7-20.4,118.6-39.1S224.9,35,224.9,35l3.9-3.1V10.5l-6.7-3H11.9L3.6,17.1z"/>
	<g>
		<g>
			<defs>
				<path id="SVGID_1_" d="M11.7,221.5c-2.4-2.9-1.6-8.8-1.6-12.9V26.7c0-5-0.2-10.9,3.2-14c3-2.7,9.4-3,13.8-3h181.9
					c4.5,0,9.8,0.2,12.8,3c3.3,3.1,4.2,9.1,4.2,14v181.9c0,4.4,0.4,10.9-2.4,13.9c-3.1,3.4-9.6,3.1-14.6,3.1H27.1
					C21.8,225.5,14.8,225.2,11.7,221.5 M24.1,0C10.8,0,0,10.8,0,24.1v187.7C0,225.2,10.8,236,24.1,236h187.7
					c13.3,0,24.1-10.8,24.1-24.1V24.1C236,10.8,225.2,0,211.9,0H24.1z"/>
			</defs>
			<clipPath id="SVGID_2_">
				<use xlink:href="#SVGID_1_"  style="overflow:visible;"/>
			</clipPath>
			
				<linearGradient id="SVGID_3_" gradientUnits="userSpaceOnUse" x1="-30.481" y1="268.2049" x2="-29.481" y2="268.2049" gradientTransform="matrix(252.7447 -258.906 -258.906 -252.7447 77138.2891 60140.1289)">
				<stop  offset="0" style="stop-color:#667DB7"/>
				<stop  offset="0.5198" style="stop-color:#99C4DB"/>
				<stop  offset="1" style="stop-color:#667DB7"/>
			</linearGradient>
			<polygon class="st1" points="-118,120.8 115.2,-118 354,115.2 120.8,354 			"/>
		</g>
		<path class="st2" d="M159.3,225.5H27.1c-5.3,0-12.2-0.3-15.3-4.1c-2.4-2.9-1.6-8.8-1.6-12.9v-66.5L0,134.9v77
			C0,225.2,10.8,236,24.1,236h154L159.3,225.5z"/>
	</g>
	<g>
		<linearGradient id="SVGID_4_" gradientUnits="userSpaceOnUse" x1="148.9115" y1="50.119" x2="-0.5686" y2="50.119">
			<stop  offset="0" style="stop-color:#667DB7"/>
			<stop  offset="0.2154" style="stop-color:#6A82BA"/>
			<stop  offset="0.4758" style="stop-color:#7491C1"/>
			<stop  offset="0.7582" style="stop-color:#86A9CD"/>
			<stop  offset="1" style="stop-color:#99C4DB"/>
		</linearGradient>
		<path class="st3" d="M52.7,65.3H46l-2.7-6.9H31.2l-2.5,6.9h-6.5L34,34.9h6.5L52.7,65.3z M41.4,53.3L37.2,42l-4.1,11.3H41.4z"/>
		<linearGradient id="SVGID_5_" gradientUnits="userSpaceOnUse" x1="148.9115" y1="50.3783" x2="-0.5686" y2="50.3783">
			<stop  offset="0" style="stop-color:#667DB7"/>
			<stop  offset="0.2154" style="stop-color:#6A82BA"/>
			<stop  offset="0.4758" style="stop-color:#7491C1"/>
			<stop  offset="0.7582" style="stop-color:#86A9CD"/>
			<stop  offset="1" style="stop-color:#99C4DB"/>
		</linearGradient>
		<path class="st4" d="M55.9,34.9h6.1v16.5c0,2.6,0.1,4.3,0.2,5.1c0.3,1.2,0.9,2.2,1.9,3c1,0.8,2.3,1.1,4.1,1.1
			c1.7,0,3.1-0.4,3.9-1.1c0.9-0.7,1.4-1.6,1.6-2.6s0.3-2.8,0.3-5.2V34.9h6.1v16c0,3.7-0.2,6.2-0.5,7.7c-0.3,1.5-0.9,2.8-1.8,3.8
			s-2.1,1.9-3.6,2.5c-1.5,0.6-3.4,0.9-5.9,0.9c-2.9,0-5.1-0.3-6.6-1s-2.7-1.5-3.6-2.6s-1.4-2.2-1.7-3.4c-0.4-1.7-0.6-4.3-0.6-7.7
			V34.9z"/>
		<linearGradient id="SVGID_6_" gradientUnits="userSpaceOnUse" x1="148.9115" y1="50.119" x2="-0.5686" y2="50.119">
			<stop  offset="0" style="stop-color:#667DB7"/>
			<stop  offset="0.2154" style="stop-color:#6A82BA"/>
			<stop  offset="0.4758" style="stop-color:#7491C1"/>
			<stop  offset="0.7582" style="stop-color:#86A9CD"/>
			<stop  offset="1" style="stop-color:#99C4DB"/>
		</linearGradient>
		<path class="st5" d="M93.5,65.3V40.1h-9v-5.1h24.2v5.1h-9v25.3H93.5z"/>
		<linearGradient id="SVGID_7_" gradientUnits="userSpaceOnUse" x1="148.9115" y1="50.119" x2="-0.5686" y2="50.119">
			<stop  offset="0" style="stop-color:#667DB7"/>
			<stop  offset="0.2154" style="stop-color:#6A82BA"/>
			<stop  offset="0.4758" style="stop-color:#7491C1"/>
			<stop  offset="0.7582" style="stop-color:#86A9CD"/>
			<stop  offset="1" style="stop-color:#99C4DB"/>
		</linearGradient>
		<path class="st6" d="M110.6,50.3c0-3.1,0.5-5.7,1.4-7.8c0.7-1.5,1.6-2.9,2.8-4.2c1.2-1.2,2.5-2.1,3.9-2.7c1.9-0.8,4.1-1.2,6.6-1.2
			c4.5,0,8.1,1.4,10.8,4.2c2.7,2.8,4,6.6,4,11.6c0,4.9-1.3,8.8-4,11.5c-2.7,2.8-6.2,4.2-10.7,4.2c-4.5,0-8.1-1.4-10.8-4.1
			C111.9,58.9,110.6,55.1,110.6,50.3z M116.9,50.1c0,3.4,0.8,6.1,2.4,7.8c1.6,1.8,3.6,2.7,6.1,2.7s4.5-0.9,6-2.6
			c1.6-1.8,2.4-4.4,2.4-7.9c0-3.5-0.8-6.1-2.3-7.8c-1.5-1.7-3.6-2.6-6.1-2.6s-4.6,0.9-6.1,2.6C117.7,44,116.9,46.6,116.9,50.1z"/>
	</g>
	<linearGradient id="SVGID_8_" gradientUnits="userSpaceOnUse" x1="209.4389" y1="74.1001" x2="131.4389" y2="74.1001">
		<stop  offset="0" style="stop-color:#667DB7"/>
		<stop  offset="0.2154" style="stop-color:#6A82BA"/>
		<stop  offset="0.4758" style="stop-color:#7491C1"/>
		<stop  offset="0.7582" style="stop-color:#86A9CD"/>
		<stop  offset="1" style="stop-color:#99C4DB"/>
	</linearGradient>
	<polygon class="st7" points="209.4,74.7 167.9,42 131.4,75.5 148.7,75.5 148.7,106.2 191.2,106.2 191.2,74.7 	"/>
	<g>
		<linearGradient id="SVGID_9_" gradientUnits="userSpaceOnUse" x1="191.1889" y1="124.7941" x2="131.4002" y2="124.7941">
			<stop  offset="0" style="stop-color:#667DB7"/>
			<stop  offset="0.2154" style="stop-color:#6A82BA"/>
			<stop  offset="0.4758" style="stop-color:#7491C1"/>
			<stop  offset="0.7582" style="stop-color:#86A9CD"/>
			<stop  offset="1" style="stop-color:#99C4DB"/>
		</linearGradient>
		<path class="st8" d="M178.9,138.7c9-14.4,12.2-27.7,12.2-27.7h-42.6c0,0,0.2-0.9-0.8,1.4c-1,2.1-8.1,14.3-16.4,26.3H178.9z"/>
		<linearGradient id="SVGID_10_" gradientUnits="userSpaceOnUse" x1="151.7514" y1="179.0451" x2="65.3391" y2="179.0451">
			<stop  offset="0" style="stop-color:#667DB7"/>
			<stop  offset="0.2154" style="stop-color:#6A82BA"/>
			<stop  offset="0.4758" style="stop-color:#7491C1"/>
			<stop  offset="0.7582" style="stop-color:#86A9CD"/>
			<stop  offset="1" style="stop-color:#99C4DB"/>
		</linearGradient>
		<path class="st9" d="M105.9,167.1L105.9,167.1c-3.9,3.6-7.6,6.5-10.2,8.5c-8.2,5.9-30.3,15.5-30.3,15.5s12.7,0.1,22.8-0.8
			c10.1-0.9,31.1-5.4,39.4-8.8c7.6-3.1,7.9-3.1,24.2-14.3L105.9,167.1z"/>
		<linearGradient id="SVGID_11_" gradientUnits="userSpaceOnUse" x1="175.7316" y1="152.8986" x2="111.0601" y2="152.8986">
			<stop  offset="0" style="stop-color:#667DB7"/>
			<stop  offset="0.2154" style="stop-color:#6A82BA"/>
			<stop  offset="0.4758" style="stop-color:#7491C1"/>
			<stop  offset="0.7582" style="stop-color:#86A9CD"/>
			<stop  offset="1" style="stop-color:#99C4DB"/>
		</linearGradient>
		<path class="st10" d="M128,143.6c-4.7,6.2-10.9,12.9-16.9,18.7l46.7,0c1.1-0.9,2.3-1.9,3.6-3c5.7-4.8,10.5-10.2,14.4-15.7H128z"/>
	</g>
</g>
</svg>
