<?xml version="1.0" encoding="utf-8"?>
<!-- Generator: Adobe Illustrator 21.0.0, SVG Export Plug-In . SVG Version: 6.00 Build 0)  -->
<svg version="1.1" id="Слой_1" xmlns="http://www.w3.org/2000/svg" xmlns:xlink="http://www.w3.org/1999/xlink" x="0px" y="0px"
	 viewBox="0 0 236 236" style="enable-background:new 0 0 236 236;" xml:space="preserve">
<style type="text/css">
	.st0{fill:#CAD3D8;}
	.st1{clip-path:url(#SVGID_2_);fill:url(#SVGID_3_);}
	.st2{fill:#667DB7;}
	.st3{fill:url(#SVGID_4_);}
	.st4{fill:url(#SVGID_5_);}
</style>
<g>
	<path class="st0" d="M3.6,17.1v108.4c0,0,70.7-20.4,118.6-39.1S224.9,35,224.9,35l3.9-3.1V10.5l-6.7-3H11.9L3.6,17.1z"/>
	<g>
		<g>
			<defs>
				<path id="SVGID_1_" d="M11.7,221.5c-2.4-2.9-1.6-8.8-1.6-12.9V26.7c0-5-0.2-10.9,3.2-14c3-2.7,9.4-3,13.8-3h181.9
					c4.5,0,9.8,0.2,12.8,3c3.3,3.1,4.2,9.1,4.2,14v181.9c0,4.4,0.4,10.9-2.4,13.9c-3.1,3.4-9.6,3.1-14.6,3.1H27.1
					C21.8,225.5,14.8,225.2,11.7,221.5 M24.1,0C10.8,0,0,10.8,0,24.1v187.7C0,225.2,10.8,236,24.1,236h187.7
					c13.3,0,24.1-10.8,24.1-24.1V24.1C236,10.8,225.2,0,211.9,0H24.1z"/>
			</defs>
			<clipPath id="SVGID_2_">
				<use xlink:href="#SVGID_1_"  style="overflow:visible;"/>
			</clipPath>
			
				<linearGradient id="SVGID_3_" gradientUnits="userSpaceOnUse" x1="-30.4798" y1="268.8237" x2="-29.4798" y2="268.8237" gradientTransform="matrix(252.7447 -258.906 -258.906 -252.7447 77298.1953 60296.8477)">
				<stop  offset="0" style="stop-color:#667DB7"/>
				<stop  offset="0.5198" style="stop-color:#99C4DB"/>
				<stop  offset="1" style="stop-color:#667DB7"/>
			</linearGradient>
			<polygon class="st1" points="-118,120.8 115.2,-118 354,115.2 120.8,354 			"/>
		</g>
		<path class="st2" d="M159.3,225.5H27.1c-5.3,0-12.2-0.3-15.3-4.1c-2.4-2.9-1.6-8.8-1.6-12.9v-66.5L0,134.9v77
			C0,225.2,10.8,236,24.1,236h154L159.3,225.5z"/>
	</g>
	<g>
		
			<radialGradient id="SVGID_4_" cx="-249.073" cy="-91.7409" r="64.1194" gradientTransform="matrix(0.9695 -0.2452 0.2452 0.9695 403.9344 155.67)" gradientUnits="userSpaceOnUse">
			<stop  offset="0" style="stop-color:#99C4DB"/>
			<stop  offset="0.5405" style="stop-color:#7C9BC6"/>
			<stop  offset="1" style="stop-color:#667DB7"/>
		</radialGradient>
		<path class="st3" d="M180.2,102.6c-3.9-11.4-11.4-20.8-20.8-27.3l9.4-15.7l-7.2-4.3l-9.4,15.8l0,0l-55.3,92.7l0,0l-9.2,15.3
			l7.2,4.3l9.1-15.2c10,5.2,21.7,7.3,33.5,5.4l5.2,20.4l8.2-2.1l-5.1-20.3c11.4-3.7,20.9-10.9,27.4-20.1l15.2,9.1l4.3-7.2l-15.2-9.1
			c5.1-10.1,7-21.8,4.9-33.6l17.5-4.4l-2.1-8.2L180.2,102.6z"/>
		
			<linearGradient id="SVGID_5_" gradientUnits="userSpaceOnUse" x1="995.2645" y1="165.058" x2="911.742" y2="165.058" gradientTransform="matrix(0.8589 0.5121 -0.5121 0.8589 -654.284 -539.3027)">
			<stop  offset="0" style="stop-color:#667DB7"/>
			<stop  offset="0.2154" style="stop-color:#6A82BA"/>
			<stop  offset="0.4758" style="stop-color:#7491C1"/>
			<stop  offset="0.7582" style="stop-color:#86A9CD"/>
			<stop  offset="1" style="stop-color:#99C4DB"/>
		</linearGradient>
		<polygon class="st4" points="153,50.2 146.2,46.2 143,51.5 139.9,42.4 136.2,43.7 140.4,55.9 137.1,61.5 131.6,45.4 127.9,46.7 
			134.4,65.9 130.9,71.8 122.9,48.5 119.1,49.7 128.2,76.3 112.5,102.6 91.1,64.3 102,40.3 98.4,38.7 88.7,60 85.5,54.3 93.6,36.5 
			90,34.8 83.1,50 80.1,44.7 85.6,32.7 82,31 77.8,40.4 74.5,34.6 67.6,38.4 71.1,44.6 59.7,43.5 59.3,47.5 73.4,48.8 76.3,54 
			59,52.4 58.6,56.3 78.7,58.2 81.8,63.8 58.1,61.5 57.8,65.5 84.1,68 105.6,106.5 62.2,105.9 46.3,83.8 43.1,86.1 57.3,105.8 
			50.8,105.7 50.8,105.7 38.8,89.1 35.6,91.4 45.9,105.6 39.8,105.5 31.6,94.2 28.4,96.5 34.8,105.5 27.7,105.4 27.6,113.3 
			34.3,113.4 28.1,122.1 31.3,124.4 39.1,113.4 45,113.5 35.4,127.1 38.6,129.4 49.8,113.6 56.2,113.7 43,132.4 46.2,134.7 
			61,113.7 105.5,114.4 90.3,139.9 62.6,144.6 63.3,148.4 87.6,144.4 84.1,150.3 64.1,153.7 64.8,157.5 81.4,154.8 78.2,160.3 
			65.4,162.4 66.1,166.3 75.5,164.7 72.3,170.1 79.1,174.1 		"/>
	</g>
</g>
</svg>
