<?xml version="1.0" encoding="utf-8"?>
<!-- Generator: Adobe Illustrator 21.0.0, SVG Export Plug-In . SVG Version: 6.00 Build 0)  -->
<svg version="1.1" id="Слой_1" xmlns="http://www.w3.org/2000/svg" xmlns:xlink="http://www.w3.org/1999/xlink" x="0px" y="0px"
	 viewBox="0 0 236 236" style="enable-background:new 0 0 236 236;" xml:space="preserve">
<style type="text/css">
	.st0{fill:#CAD3D8;}
	.st1{fill:url(#SVGID_1_);}
	.st2{fill:url(#SVGID_2_);}
	.st3{clip-path:url(#SVGID_4_);fill:url(#SVGID_5_);}
	.st4{fill:#667DB7;}
	.st5{fill:url(#SVGID_6_);}
	.st6{fill:url(#SVGID_7_);}
	.st7{fill:url(#SVGID_8_);}
</style>
<g>
	<path class="st0" d="M3.6,17.1v108.4c0,0,70.7-20.4,118.6-39.1S224.9,35,224.9,35l3.9-3.1V10.5l-6.7-3H11.9L3.6,17.1z"/>
	<linearGradient id="SVGID_1_" gradientUnits="userSpaceOnUse" x1="208.6176" y1="109.4223" x2="156.1176" y2="109.4223">
		<stop  offset="0" style="stop-color:#667DB7"/>
		<stop  offset="0.2154" style="stop-color:#6A82BA"/>
		<stop  offset="0.4758" style="stop-color:#7491C1"/>
		<stop  offset="0.7582" style="stop-color:#86A9CD"/>
		<stop  offset="1" style="stop-color:#99C4DB"/>
	</linearGradient>
	<path class="st1" d="M198.8,128.8V58.3c0-8.3-6.8-15-15-15H181c-8.3,0-15,6.8-15,15v70.5c-6,4.8-9.8,12.2-9.8,20.5
		c0,14.5,11.8,26.3,26.3,26.3c14.5,0,26.3-11.8,26.3-26.3C208.6,141,204.8,133.6,198.8,128.8z M182.4,164.5
		c-8.4,0-15.2-6.8-15.2-15.2c0-4.9,2.3-9.3,5.9-12v-12.5c0,0,0,0,0,0V59.5c0-5.1,4.2-9.3,9.3-9.3s9.3,4.2,9.3,9.3v58.8h0v19
		c3.6,2.8,5.9,7.1,5.9,12C197.6,157.7,190.8,164.5,182.4,164.5z"/>
	<linearGradient id="SVGID_2_" gradientUnits="userSpaceOnUse" x1="192.794" y1="136.9099" x2="171.9413" y2="136.9099">
		<stop  offset="0" style="stop-color:#667DB7"/>
		<stop  offset="0.2154" style="stop-color:#6A82BA"/>
		<stop  offset="0.4758" style="stop-color:#7491C1"/>
		<stop  offset="0.7582" style="stop-color:#86A9CD"/>
		<stop  offset="1" style="stop-color:#99C4DB"/>
	</linearGradient>
	<path class="st2" d="M187,139.9v-25.8h-9.3v25.8c-3.4,1.7-5.8,5.2-5.8,9.3c0,5.8,4.7,10.4,10.4,10.4s10.4-4.7,10.4-10.4
		C192.8,145.2,190.4,141.7,187,139.9z"/>
	<g>
		<g>
			<defs>
				<path id="SVGID_3_" d="M11.7,221.5c-2.4-2.9-1.6-8.8-1.6-12.9V26.7c0-5-0.2-10.9,3.2-14c3-2.7,9.4-3,13.8-3h181.9
					c4.5,0,9.8,0.2,12.8,3c3.3,3.1,4.2,9.1,4.2,14v181.9c0,4.4,0.4,10.9-2.4,13.9c-3.1,3.4-9.6,3.1-14.6,3.1H27.1
					C21.8,225.5,14.8,225.2,11.7,221.5 M24.1,0C10.8,0,0,10.8,0,24.1v187.7C0,225.2,10.8,236,24.1,236h187.7
					c13.3,0,24.1-10.8,24.1-24.1V24.1C236,10.8,225.2,0,211.9,0H24.1z"/>
			</defs>
			<clipPath id="SVGID_4_">
				<use xlink:href="#SVGID_3_"  style="overflow:visible;"/>
			</clipPath>
			
				<linearGradient id="SVGID_5_" gradientUnits="userSpaceOnUse" x1="-30.4797" y1="268.8837" x2="-29.4796" y2="268.8837" gradientTransform="matrix(252.7447 -258.906 -258.906 -252.7447 77313.6953 60312.043)">
				<stop  offset="0" style="stop-color:#667DB7"/>
				<stop  offset="0.5198" style="stop-color:#99C4DB"/>
				<stop  offset="1" style="stop-color:#667DB7"/>
			</linearGradient>
			<polygon class="st3" points="-118,120.8 115.2,-118 354,115.2 120.8,354 			"/>
		</g>
		<path class="st4" d="M159.3,225.5H27.1c-5.3,0-12.2-0.3-15.3-4.1c-2.4-2.9-1.6-8.8-1.6-12.9v-66.5L0,134.9v77
			C0,225.2,10.8,236,24.1,236h154L159.3,225.5z"/>
	</g>
	<g>
		<linearGradient id="SVGID_6_" gradientUnits="userSpaceOnUse" x1="132.3539" y1="52.6546" x2="48.3539" y2="50.6546">
			<stop  offset="0" style="stop-color:#667DB7"/>
			<stop  offset="0.2154" style="stop-color:#6A82BA"/>
			<stop  offset="0.4758" style="stop-color:#7491C1"/>
			<stop  offset="0.7582" style="stop-color:#86A9CD"/>
			<stop  offset="1" style="stop-color:#99C4DB"/>
		</linearGradient>
		<path class="st5" d="M28.1,66V34.5h6.4v26.1h15.9V66H28.1z"/>
		<linearGradient id="SVGID_7_" gradientUnits="userSpaceOnUse" x1="132.3784" y1="51.6263" x2="48.3784" y2="49.6263">
			<stop  offset="0" style="stop-color:#667DB7"/>
			<stop  offset="0.2154" style="stop-color:#6A82BA"/>
			<stop  offset="0.4758" style="stop-color:#7491C1"/>
			<stop  offset="0.7582" style="stop-color:#86A9CD"/>
			<stop  offset="1" style="stop-color:#99C4DB"/>
		</linearGradient>
		<path class="st6" d="M53.7,50.3c0-3.2,0.5-5.9,1.4-8.1c0.7-1.6,1.7-3.1,3-4.3c1.2-1.3,2.6-2.2,4.1-2.9c2-0.8,4.3-1.3,6.8-1.3
			c4.7,0,8.4,1.4,11.2,4.3c2.8,2.9,4.2,6.9,4.2,12.1c0,5.1-1.4,9.1-4.2,12c-2.8,2.9-6.5,4.3-11.2,4.3c-4.7,0-8.5-1.4-11.2-4.3
			C55.1,59.3,53.7,55.4,53.7,50.3z M60.3,50.1c0,3.6,0.8,6.3,2.5,8.2c1.7,1.9,3.8,2.8,6.3,2.8c2.6,0,4.6-0.9,6.3-2.8
			c1.6-1.8,2.5-4.6,2.5-8.3c0-3.6-0.8-6.3-2.4-8.1c-1.6-1.8-3.7-2.7-6.3-2.7s-4.8,0.9-6.4,2.7C61.1,43.7,60.3,46.4,60.3,50.1z"/>
		<linearGradient id="SVGID_8_" gradientUnits="userSpaceOnUse" x1="132.4022" y1="50.6292" x2="48.4022" y2="48.6292">
			<stop  offset="0" style="stop-color:#667DB7"/>
			<stop  offset="0.2154" style="stop-color:#6A82BA"/>
			<stop  offset="0.4758" style="stop-color:#7491C1"/>
			<stop  offset="0.7582" style="stop-color:#86A9CD"/>
			<stop  offset="1" style="stop-color:#99C4DB"/>
		</linearGradient>
		<path class="st7" d="M93.9,66l-7.6-31.7h6.6L97.7,56l5.8-21.8h7.6l5.6,22.1l4.9-22.1h6.4L120.3,66h-6.8l-6.3-23.7L100.9,66H93.9z"
			/>
	</g>
</g>
</svg>
