<?xml version="1.0" encoding="utf-8"?>
<!-- Generator: Adobe Illustrator 21.0.0, SVG Export Plug-In . SVG Version: 6.00 Build 0)  -->
<svg version="1.1" id="Слой_1" xmlns="http://www.w3.org/2000/svg" xmlns:xlink="http://www.w3.org/1999/xlink" x="0px" y="0px"
	 viewBox="0 0 236 236" style="enable-background:new 0 0 236 236;" xml:space="preserve">
<style type="text/css">
	.st0{fill:#CAD3D8;}
	.st1{clip-path:url(#SVGID_2_);fill:url(#SVGID_3_);}
	.st2{fill:#667DB7;}
	.st3{fill:url(#SVGID_4_);}
	.st4{fill:url(#SVGID_5_);}
	.st5{fill:url(#SVGID_6_);}
	.st6{fill:url(#SVGID_7_);}
	.st7{fill:url(#SVGID_8_);}
	.st8{fill:url(#SVGID_9_);}
	.st9{fill:url(#SVGID_10_);}
	.st10{fill:url(#SVGID_11_);}
	.st11{fill:url(#SVGID_12_);}
	.st12{fill:url(#SVGID_13_);}
	.st13{fill:url(#SVGID_14_);}
</style>
<g>
	<path class="st0" d="M8.6,17.1v108.4c0,0,70.7-20.4,118.6-39.1S229.9,35,229.9,35l3.9-3.1V10.5l-6.7-3H17L8.6,17.1z"/>
	<g>
		<g>
			<defs>
				<path id="SVGID_1_" d="M11.7,221.5c-2.4-2.9-1.6-8.8-1.6-12.9V26.7c0-5-0.2-10.9,3.2-14c3-2.7,9.4-3,13.8-3h181.9
					c4.5,0,9.8,0.2,12.8,3c3.3,3.1,4.2,9.1,4.2,14v181.9c0,4.4,0.4,10.9-2.4,13.9c-3.1,3.4-9.6,3.1-14.6,3.1H27.1
					C21.8,225.5,14.8,225.2,11.7,221.5 M24.1,0C10.8,0,0,10.8,0,24.1v187.7C0,225.2,10.8,236,24.1,236h187.7
					c13.3,0,24.1-10.8,24.1-24.1V24.1C236,10.8,225.2,0,211.9,0H24.1z"/>
			</defs>
			<clipPath id="SVGID_2_">
				<use xlink:href="#SVGID_1_"  style="overflow:visible;"/>
			</clipPath>
			
				<linearGradient id="SVGID_3_" gradientUnits="userSpaceOnUse" x1="-30.4805" y1="268.4765" x2="-29.4804" y2="268.4765" gradientTransform="matrix(252.7447 -258.906 -258.906 -252.7447 77208.4688 60208.9141)">
				<stop  offset="0" style="stop-color:#667DB7"/>
				<stop  offset="0.5198" style="stop-color:#99C4DB"/>
				<stop  offset="1" style="stop-color:#667DB7"/>
			</linearGradient>
			<polygon class="st1" points="-118,120.8 115.2,-118 354,115.2 120.8,354 			"/>
		</g>
		<path class="st2" d="M159.3,225.5H27.1c-5.3,0-12.2-0.3-15.3-4.1c-2.4-2.9-1.6-8.8-1.6-12.9v-66.5L0,134.9v77
			C0,225.2,10.8,236,24.1,236h154L159.3,225.5z"/>
	</g>
	<g>
		<linearGradient id="SVGID_4_" gradientUnits="userSpaceOnUse" x1="207.4852" y1="160.8981" x2="183.4852" y2="160.8981">
			<stop  offset="0" style="stop-color:#667DB7"/>
			<stop  offset="0.2154" style="stop-color:#6A82BA"/>
			<stop  offset="0.4758" style="stop-color:#7491C1"/>
			<stop  offset="0.7582" style="stop-color:#86A9CD"/>
			<stop  offset="1" style="stop-color:#99C4DB"/>
		</linearGradient>
		<path class="st3" d="M206.7,165.3L206.7,165.3l0-0.1c-0.2-0.5-0.4-0.9-0.6-1.3l-10.6-23.5l-10.6,23.6c-0.2,0.4-0.4,0.8-0.6,1.3
			l-0.1,0.1h0c-0.5,1.3-0.8,2.7-0.8,4.2c0,6.6,5.4,12,12,12c6.6,0,12-5.4,12-12C207.5,168,207.2,166.6,206.7,165.3z"/>
		
			<radialGradient id="SVGID_5_" cx="186.3187" cy="168.8148" r="6.6667" gradientTransform="matrix(1.028679e-13 -1 0.8 8.229431e-14 51.2668 355.1335)" gradientUnits="userSpaceOnUse">
			<stop  offset="0" style="stop-color:#FFFFFF"/>
			<stop  offset="0.2463" style="stop-color:#FFFFFF;stop-opacity:0.7537"/>
			<stop  offset="1" style="stop-color:#FFFFFF;stop-opacity:0"/>
		</radialGradient>
		<path class="st4" d="M203.7,165.3L203.7,165.3l0-0.1c-0.2-0.5-0.4-0.9-0.6-1.3l-10.6-23.5l-10.6,23.6c-0.2,0.4-0.4,0.8-0.6,1.3
			l-0.1,0.1h0c-0.5,1.3-0.8,2.7-0.8,4.2c0,6.6,5.4,12,12,12c6.6,0,12-5.4,12-12C204.5,168,204.2,166.6,203.7,165.3z"/>
	</g>
	<g>
		<linearGradient id="SVGID_6_" gradientUnits="userSpaceOnUse" x1="181.7769" y1="121.3738" x2="162.2769" y2="121.3738">
			<stop  offset="0" style="stop-color:#667DB7"/>
			<stop  offset="0.2154" style="stop-color:#6A82BA"/>
			<stop  offset="0.4758" style="stop-color:#7491C1"/>
			<stop  offset="0.7582" style="stop-color:#86A9CD"/>
			<stop  offset="1" style="stop-color:#99C4DB"/>
		</linearGradient>
		<path class="st5" d="M181.2,125L181.2,125l0-0.1c-0.1-0.4-0.3-0.7-0.5-1.1l-8.6-19.1l-8.6,19.2c-0.2,0.3-0.3,0.7-0.5,1l-0.1,0.1h0
			c-0.4,1.1-0.6,2.2-0.6,3.4c0,5.4,4.4,9.7,9.7,9.7c5.4,0,9.7-4.4,9.7-9.7C181.8,127.2,181.6,126,181.2,125z"/>
		
			<radialGradient id="SVGID_7_" cx="164.2885" cy="127.952" r="6.2037" gradientTransform="matrix(1.028679e-13 -1 0.8 8.229431e-14 61.927 292.2405)" gradientUnits="userSpaceOnUse">
			<stop  offset="0" style="stop-color:#FFFFFF"/>
			<stop  offset="0.2463" style="stop-color:#FFFFFF;stop-opacity:0.7537"/>
			<stop  offset="1" style="stop-color:#FFFFFF;stop-opacity:0"/>
		</radialGradient>
		<path class="st6" d="M180.5,124.7L180.5,124.7l0-0.1c-0.2-0.4-0.3-0.8-0.6-1.2l-9.9-21.9l-9.9,21.9c-0.2,0.4-0.4,0.8-0.5,1.2
			l-0.1,0.1h0c-0.5,1.2-0.7,2.5-0.7,3.9c0,6.2,5,11.2,11.2,11.2c6.2,0,11.2-5,11.2-11.2C181.2,127.2,180.9,125.9,180.5,124.7z"/>
	</g>
	<linearGradient id="SVGID_8_" gradientUnits="userSpaceOnUse" x1="212.8857" y1="59.541" x2="29.1357" y2="59.541">
		<stop  offset="0" style="stop-color:#667DB7"/>
		<stop  offset="0.2154" style="stop-color:#6A82BA"/>
		<stop  offset="0.4758" style="stop-color:#7491C1"/>
		<stop  offset="0.7582" style="stop-color:#86A9CD"/>
		<stop  offset="1" style="stop-color:#99C4DB"/>
	</linearGradient>
	<path class="st7" d="M203.3,84H38.8c-5.3,0-9.6-4.3-9.6-9.6V44.7c0-5.3,4.3-9.6,9.6-9.6h164.5c5.3,0,9.6,4.3,9.6,9.6v29.7
		C212.9,79.7,208.6,84,203.3,84z M38.8,38c-3.7,0-6.6,3-6.6,6.6v29.7c0,3.7,3,6.6,6.6,6.6h164.5c3.7,0,6.6-3,6.6-6.6V44.7
		c0-3.7-3-6.6-6.6-6.6H38.8z"/>
	<linearGradient id="SVGID_9_" gradientUnits="userSpaceOnUse" x1="202.6773" y1="44.868" x2="40.2608" y2="44.868">
		<stop  offset="0" style="stop-color:#667DB7"/>
		<stop  offset="0.2154" style="stop-color:#6A82BA"/>
		<stop  offset="0.4758" style="stop-color:#7491C1"/>
		<stop  offset="0.7582" style="stop-color:#86A9CD"/>
		<stop  offset="1" style="stop-color:#99C4DB"/>
	</linearGradient>
	<rect x="40.3" y="43.4" class="st8" width="162.4" height="3"/>
	<linearGradient id="SVGID_10_" gradientUnits="userSpaceOnUse" x1="202.6773" y1="49.9513" x2="40.2608" y2="49.9513">
		<stop  offset="0" style="stop-color:#667DB7"/>
		<stop  offset="0.2154" style="stop-color:#6A82BA"/>
		<stop  offset="0.4758" style="stop-color:#7491C1"/>
		<stop  offset="0.7582" style="stop-color:#86A9CD"/>
		<stop  offset="1" style="stop-color:#99C4DB"/>
	</linearGradient>
	<rect x="40.3" y="48.5" class="st9" width="162.4" height="3"/>
	<linearGradient id="SVGID_11_" gradientUnits="userSpaceOnUse" x1="202.6773" y1="55.0346" x2="40.2608" y2="55.0346">
		<stop  offset="0" style="stop-color:#667DB7"/>
		<stop  offset="0.2154" style="stop-color:#6A82BA"/>
		<stop  offset="0.4758" style="stop-color:#7491C1"/>
		<stop  offset="0.7582" style="stop-color:#86A9CD"/>
		<stop  offset="1" style="stop-color:#99C4DB"/>
	</linearGradient>
	<rect x="40.3" y="53.5" class="st10" width="162.4" height="3"/>
	<linearGradient id="SVGID_12_" gradientUnits="userSpaceOnUse" x1="202.6773" y1="60.5288" x2="40.2608" y2="60.5288">
		<stop  offset="0" style="stop-color:#667DB7"/>
		<stop  offset="0.2154" style="stop-color:#6A82BA"/>
		<stop  offset="0.4758" style="stop-color:#7491C1"/>
		<stop  offset="0.7582" style="stop-color:#86A9CD"/>
		<stop  offset="1" style="stop-color:#99C4DB"/>
	</linearGradient>
	<rect x="40.3" y="59" class="st11" width="162.4" height="3"/>
	<linearGradient id="SVGID_13_" gradientUnits="userSpaceOnUse" x1="202.5523" y1="66.4038" x2="40.1358" y2="66.4038">
		<stop  offset="0" style="stop-color:#667DB7"/>
		<stop  offset="0.2154" style="stop-color:#6A82BA"/>
		<stop  offset="0.4758" style="stop-color:#7491C1"/>
		<stop  offset="0.7582" style="stop-color:#86A9CD"/>
		<stop  offset="1" style="stop-color:#99C4DB"/>
	</linearGradient>
	<rect x="40.1" y="64.9" class="st12" width="162.4" height="3"/>
	<linearGradient id="SVGID_14_" gradientUnits="userSpaceOnUse" x1="203.0107" y1="78.9828" x2="39.9274" y2="78.9828">
		<stop  offset="0" style="stop-color:#667DB7"/>
		<stop  offset="0.2154" style="stop-color:#6A82BA"/>
		<stop  offset="0.4758" style="stop-color:#7491C1"/>
		<stop  offset="0.7582" style="stop-color:#86A9CD"/>
		<stop  offset="1" style="stop-color:#99C4DB"/>
	</linearGradient>
	<path class="st13" d="M197.6,84.4H45.3c-3,0-5.4-2.4-5.4-5.4v0c0-3,2.4-5.4,5.4-5.4h152.3c3,0,5.4,2.4,5.4,5.4v0
		C203,82,200.6,84.4,197.6,84.4z"/>
</g>
</svg>
