<?xml version="1.0" encoding="utf-8"?>
<!-- Generator: Adobe Illustrator 21.0.0, SVG Export Plug-In . SVG Version: 6.00 Build 0)  -->
<svg version="1.1" id="Слой_1" xmlns="http://www.w3.org/2000/svg" xmlns:xlink="http://www.w3.org/1999/xlink" x="0px" y="0px"
	 viewBox="0 0 236 236" style="enable-background:new 0 0 236 236;" xml:space="preserve">
<style type="text/css">
	.st0{fill:#CAD3D8;}
	.st1{clip-path:url(#SVGID_2_);fill:url(#SVGID_3_);}
	.st2{fill:#667DB7;}
	.st3{fill:url(#SVGID_4_);}
	.st4{fill:#FFFFFF;}
</style>
<g>
	<path class="st0" d="M3.6,17.1v108.4c0,0,70.7-20.4,118.6-39.1S224.9,35,224.9,35l3.9-3.1V10.5l-6.7-3H11.9L3.6,17.1z"/>
	<g>
		<defs>
			<path id="SVGID_1_" d="M11.7,221.5c-2.4-2.9-1.6-8.8-1.6-12.9V26.7c0-5-0.2-10.9,3.2-14c3-2.7,9.4-3,13.8-3h181.9
				c4.5,0,9.8,0.2,12.8,3c3.3,3.1,4.2,9.1,4.2,14v181.9c0,4.4,0.4,10.9-2.4,13.9c-3.1,3.4-9.6,3.1-14.6,3.1H27.1
				C21.8,225.5,14.8,225.2,11.7,221.5 M24.1,0C10.8,0,0,10.8,0,24.1v187.7C0,225.2,10.8,236,24.1,236h187.7
				c13.3,0,24.1-10.8,24.1-24.1V24.1C236,10.8,225.2,0,211.9,0H24.1z"/>
		</defs>
		<clipPath id="SVGID_2_">
			<use xlink:href="#SVGID_1_"  style="overflow:visible;"/>
		</clipPath>
		
			<linearGradient id="SVGID_3_" gradientUnits="userSpaceOnUse" x1="-31.184" y1="268.8223" x2="-30.184" y2="268.8223" gradientTransform="matrix(252.7447 -258.906 -258.906 -252.7447 77475.8125 60114.1719)">
			<stop  offset="0" style="stop-color:#667DB7"/>
			<stop  offset="0.5198" style="stop-color:#99C4DB"/>
			<stop  offset="1" style="stop-color:#667DB7"/>
		</linearGradient>
		<polygon class="st1" points="-118,120.8 115.2,-118 354,115.2 120.8,354 		"/>
	</g>
	<path class="st2" d="M159.3,225.5H27.1c-5.3,0-12.2-0.3-15.3-4.1c-2.4-2.9-1.6-8.8-1.6-12.9v-66.5L0,134.9v77
		C0,225.2,10.8,236,24.1,236h154L159.3,225.5z"/>
	<linearGradient id="SVGID_4_" gradientUnits="userSpaceOnUse" x1="206.6767" y1="119.6532" x2="29.6767" y2="119.6532">
		<stop  offset="0" style="stop-color:#667DB7"/>
		<stop  offset="0.2154" style="stop-color:#6A82BA"/>
		<stop  offset="0.4758" style="stop-color:#7491C1"/>
		<stop  offset="0.7582" style="stop-color:#86A9CD"/>
		<stop  offset="1" style="stop-color:#99C4DB"/>
	</linearGradient>
	<rect x="29.7" y="44.6" class="st3" width="177" height="150.1"/>
	<rect x="49.4" y="149.8" class="st4" width="137.2" height="15.7"/>
	
		<rect x="166.4" y="149.5" transform="matrix(-1.836970e-16 1 -1 -1.836970e-16 344.2116 -35.0987)" class="st4" width="46.5" height="10.2"/>
	
		<rect x="21.9" y="149.2" transform="matrix(-1.836970e-16 1 -1 -1.836970e-16 199.4616 109.1513)" class="st4" width="46.5" height="10.2"/>
	<circle class="st4" cx="67.4" cy="136.5" r="10.9"/>
	<path class="st4" d="M173.8,146.5c-0.3,0.2-0.6,0.4-0.9,0.5c-0.5,0.2-1,0.4-1.5,0.4H85.7c-1.9,0-3.4-1.5-3.4-3.4v-13.6
		c0-1.8,1.4-3.3,3.2-3.4l22.5-1.9c23-2.1,29.5-1,47.2,0.9c5.4,0.6,12.9,2.2,16.9,3.2c1.6,0.4,2.7,1.8,2.7,3.4v11.9
		C174.7,144.3,174.4,146,173.8,146.5z"/>
	<g>
		<path class="st4" d="M75.7,121.8V121l6.6-4.6c-0.7,0-1.4,0-2,0h-4.2v-0.9h8.4v0.7l-5.6,4l-1.1,0.7c0.8,0,1.5-0.1,2.2-0.1h4.8v0.9
			H75.7z"/>
	</g>
	<g>
		<path class="st4" d="M90.2,113.3v-1.2l9.5-6.6c-1.1,0-2,0.1-2.8,0.1h-6.1v-1.2h12.1v1l-8,5.7l-1.6,1c1.1-0.1,2.2-0.1,3.2-0.1h6.9
			v1.3H90.2z"/>
	</g>
</g>
</svg>
