<?xml version="1.0" encoding="utf-8"?>
<!-- Generator: Adobe Illustrator 21.0.0, SVG Export Plug-In . SVG Version: 6.00 Build 0)  -->
<svg version="1.1" id="Слой_1" xmlns="http://www.w3.org/2000/svg" xmlns:xlink="http://www.w3.org/1999/xlink" x="0px" y="0px"
	 viewBox="0 0 236 236" style="enable-background:new 0 0 236 236;" xml:space="preserve">
<style type="text/css">
	.st0{fill:#CAD3D8;}
	.st1{clip-path:url(#SVGID_2_);fill:url(#SVGID_3_);}
	.st2{fill:#667DB7;}
	.st3{fill:url(#SVGID_4_);}
	.st4{fill:url(#SVGID_5_);}
	.st5{fill:url(#SVGID_6_);}
	.st6{fill:url(#SVGID_7_);}
	.st7{fill:url(#SVGID_8_);}
</style>
<g>
	<path class="st0" d="M3.6,17.1v108.4c0,0,70.7-20.4,118.6-39.1S224.9,35,224.9,35l3.9-3.1V10.5l-6.7-3H11.9L3.6,17.1z"/>
	<g>
		<g>
			<defs>
				<path id="SVGID_1_" d="M11.7,221.5c-2.4-2.9-1.6-8.8-1.6-12.9V26.7c0-5-0.2-10.9,3.2-14c3-2.7,9.4-3,13.8-3h181.9
					c4.5,0,9.8,0.2,12.8,3c3.3,3.1,4.2,9.1,4.2,14v181.9c0,4.4,0.4,10.9-2.4,13.9c-3.1,3.4-9.6,3.1-14.6,3.1H27.1
					C21.8,225.5,14.8,225.2,11.7,221.5 M24.1,0C10.8,0,0,10.8,0,24.1v187.7C0,225.2,10.8,236,24.1,236h187.7
					c13.3,0,24.1-10.8,24.1-24.1V24.1C236,10.8,225.2,0,211.9,0H24.1z"/>
			</defs>
			<clipPath id="SVGID_2_">
				<use xlink:href="#SVGID_1_"  style="overflow:visible;"/>
			</clipPath>
			
				<linearGradient id="SVGID_3_" gradientUnits="userSpaceOnUse" x1="-31.008" y1="268.8826" x2="-30.008" y2="268.8826" gradientTransform="matrix(252.7447 -258.906 -258.906 -252.7447 77446.9688 60174.9727)">
				<stop  offset="0" style="stop-color:#667DB7"/>
				<stop  offset="0.5198" style="stop-color:#99C4DB"/>
				<stop  offset="1" style="stop-color:#667DB7"/>
			</linearGradient>
			<polygon class="st1" points="-118,120.8 115.2,-118 354,115.2 120.8,354 			"/>
		</g>
		<path class="st2" d="M159.3,225.5H27.1c-5.3,0-12.2-0.3-15.3-4.1c-2.4-2.9-1.6-8.8-1.6-12.9v-66.5L0,134.9v77
			C0,225.2,10.8,236,24.1,236h154L159.3,225.5z"/>
	</g>
	<g>
		<g>
			<g>
				<linearGradient id="SVGID_4_" gradientUnits="userSpaceOnUse" x1="145.6201" y1="146.9913" x2="96.5869" y2="146.9913">
					<stop  offset="0" style="stop-color:#667DB7"/>
					<stop  offset="0.2154" style="stop-color:#6A82BA"/>
					<stop  offset="0.4758" style="stop-color:#7491C1"/>
					<stop  offset="0.7582" style="stop-color:#86A9CD"/>
					<stop  offset="1" style="stop-color:#99C4DB"/>
				</linearGradient>
				<path class="st3" d="M111.8,137.4c1.9,0,3.5,0.8,4.9,2.5c0.7,1.1,1.1,2.2,1.1,3.4c0,1.8-0.9,3.5-2.6,5.1l-4.9,5.5h6.5
					c0.7,0,1.1,0.4,1.3,1.3v0.1c-0.1,0.9-0.6,1.3-1.3,1.3h-9.6c-0.9-0.2-1.3-0.6-1.3-1.3v-0.1c0-0.4,0.3-0.9,1-1.6l7.6-8.5
					c0.4-0.5,0.6-1.1,0.6-1.8c0-1.5-0.8-2.5-2.3-3.1c-0.2-0.1-0.5-0.1-0.9-0.1h-0.1c-1.4,0-2.5,0.8-3.1,2.3
					c-0.1,0.3-0.1,0.7-0.2,1.2c-0.3,0.6-0.7,1-1.3,1H107c-0.9-0.2-1.3-0.6-1.3-1.3c0-2.1,1-3.8,3-5.1
					C109.8,137.7,110.8,137.4,111.8,137.4z"/>
				<linearGradient id="SVGID_5_" gradientUnits="userSpaceOnUse" x1="145.6201" y1="147.0617" x2="96.5869" y2="147.0617">
					<stop  offset="0" style="stop-color:#667DB7"/>
					<stop  offset="0.2154" style="stop-color:#6A82BA"/>
					<stop  offset="0.4758" style="stop-color:#7491C1"/>
					<stop  offset="0.7582" style="stop-color:#86A9CD"/>
					<stop  offset="1" style="stop-color:#99C4DB"/>
				</linearGradient>
				<path class="st4" d="M128.2,137.5h0.3c0.5,0,1,0.4,1.2,1.2l-0.1,0.6v9.2h1.1l0.4,0c0.7,0,1.1,0.4,1.3,1.3c0,0.6-0.4,1.1-1.2,1.4
					l-0.8-0.1h-0.9v4.3c0,0.6-0.4,1-1.3,1.2h-0.1c-0.9-0.2-1.3-0.6-1.3-1.3v-4.2h-6.2l-1.3,0.1c-0.7-0.3-1-0.7-1-1.3v-0.2
					c0-0.4,0.2-0.7,0.6-1c5.2-6.7,8-10.2,8.3-10.7C127.6,137.7,127.9,137.5,128.2,137.5z M122.7,148.5h4.4v-5.6L122.7,148.5z"/>
			</g>
			<circle class="st2" cx="119.2" cy="118.9" r="4.8"/>
			<linearGradient id="SVGID_6_" gradientUnits="userSpaceOnUse" x1="188.275" y1="119" x2="50.0783" y2="119">
				<stop  offset="0" style="stop-color:#667DB7"/>
				<stop  offset="0.2154" style="stop-color:#6A82BA"/>
				<stop  offset="0.4758" style="stop-color:#7491C1"/>
				<stop  offset="0.7582" style="stop-color:#86A9CD"/>
				<stop  offset="1" style="stop-color:#99C4DB"/>
			</linearGradient>
			<path class="st5" d="M119.2,49.9C81,49.9,50.1,80.8,50.1,119c0,38.2,30.9,69.1,69.1,69.1s69.1-30.9,69.1-69.1
				C188.3,80.8,157.3,49.9,119.2,49.9z M124.2,179.4c-0.4-2.2-2.4-3.9-4.7-3.9c-2.4,0-4.3,1.7-4.7,4c-29.9-2.1-53.7-25.7-56.3-55.5
				c2.3-0.3,4.1-2.3,4.1-4.8c0-2.5-1.8-4.5-4.2-4.8c2.1-30.2,26.2-54.2,56.3-56.4c0.4,2.3,2.4,4,4.7,4c2.4,0,4.3-1.7,4.7-3.9
				c29.8,2.5,53.5,26.5,55.6,56.4c-2.2,0.5-3.8,2.4-3.8,4.7c0,2.3,1.6,4.2,3.7,4.7C177.2,153.5,153.7,177,124.2,179.4z"/>
			<polyline class="st2" points="122.1,119.1 119.3,75.9 116.8,119.3 122.2,119.5 			"/>
			<polyline class="st2" points="116.5,121.7 163.1,118.9 116.3,116.4 116.1,121.7 			"/>
		</g>
		
			<radialGradient id="SVGID_7_" cx="1397.2728" cy="56.5176" r="22.269" gradientTransform="matrix(0.7488 0.6628 -0.6628 0.7488 -832.7036 -917.6492)" gradientUnits="userSpaceOnUse">
			<stop  offset="0" style="stop-color:#99C4DB"/>
			<stop  offset="0.5405" style="stop-color:#7C9BC6"/>
			<stop  offset="1" style="stop-color:#667DB7"/>
		</radialGradient>
		<path class="st6" d="M189,79.5c8.6-11.9,6.9-28.6-4.3-38.5c-11.2-9.9-28-9.5-38.7,0.4L189,79.5z"/>
		
			<radialGradient id="SVGID_8_" cx="2246.3027" cy="-694.9515" r="22.269" gradientTransform="matrix(-0.7488 0.6628 0.6628 0.7488 2206.3997 -917.6492)" gradientUnits="userSpaceOnUse">
			<stop  offset="0" style="stop-color:#99C4DB"/>
			<stop  offset="0.5405" style="stop-color:#7C9BC6"/>
			<stop  offset="1" style="stop-color:#667DB7"/>
		</radialGradient>
		<path class="st7" d="M50.9,79.5c-8.6-11.9-6.9-28.6,4.3-38.5c11.2-9.9,28-9.5,38.7,0.4L50.9,79.5z"/>
	</g>
</g>
</svg>
