<?xml version="1.0" encoding="utf-8"?>
<!-- Generator: Adobe Illustrator 21.0.0, SVG Export Plug-In . SVG Version: 6.00 Build 0)  -->
<svg version="1.1" id="Слой_1" xmlns="http://www.w3.org/2000/svg" xmlns:xlink="http://www.w3.org/1999/xlink" x="0px" y="0px"
	 viewBox="0 0 236 236" style="enable-background:new 0 0 236 236;" xml:space="preserve">
<style type="text/css">
	.st0{fill:#CAD3D8;}
	.st1{clip-path:url(#SVGID_2_);fill:url(#SVGID_3_);}
	.st2{fill:#667DB7;}
	.st3{fill:url(#SVGID_4_);}
	.st4{fill:url(#SVGID_5_);}
	.st5{fill:url(#SVGID_6_);}
	.st6{fill:url(#SVGID_7_);}
	.st7{fill:url(#SVGID_8_);}
	.st8{fill:url(#SVGID_9_);}
	.st9{fill:url(#SVGID_10_);}
</style>
<g>
	<g>
		<path class="st0" d="M3.6,17.1v108.4c0,0,70.7-20.4,118.6-39.1S224.9,35,224.9,35l3.9-3.1V10.5l-6.7-3H11.9L3.6,17.1z"/>
		<g>
			<defs>
				<path id="SVGID_1_" d="M11.7,221.5c-2.4-2.9-1.6-8.8-1.6-12.9V26.7c0-5-0.2-10.9,3.2-14c3-2.7,9.4-3,13.8-3h181.9
					c4.5,0,9.8,0.2,12.8,3c3.3,3.1,4.2,9.1,4.2,14v181.9c0,4.4,0.4,10.9-2.4,13.9c-3.1,3.4-9.6,3.1-14.6,3.1H27.1
					C21.8,225.5,14.8,225.2,11.7,221.5 M24.1,0C10.8,0,0,10.8,0,24.1v187.7C0,225.2,10.8,236,24.1,236h187.7
					c13.3,0,24.1-10.8,24.1-24.1V24.1C236,10.8,225.2,0,211.9,0H24.1z"/>
			</defs>
			<clipPath id="SVGID_2_">
				<use xlink:href="#SVGID_1_"  style="overflow:visible;"/>
			</clipPath>
			
				<linearGradient id="SVGID_3_" gradientUnits="userSpaceOnUse" x1="-30.3624" y1="268.4767" x2="-29.3624" y2="268.4767" gradientTransform="matrix(252.7447 -258.906 -258.906 -252.7447 77178.6953 60239.5352)">
				<stop  offset="0" style="stop-color:#667DB7"/>
				<stop  offset="0.5198" style="stop-color:#99C4DB"/>
				<stop  offset="1" style="stop-color:#667DB7"/>
			</linearGradient>
			<polygon class="st1" points="-118,120.8 115.2,-118 354,115.2 120.8,354 			"/>
		</g>
		<path class="st2" d="M159.3,225.5H27.1c-5.3,0-12.2-0.3-15.3-4.1c-2.4-2.9-1.6-8.8-1.6-12.9v-66.5L0,134.9v77
			C0,225.2,10.8,236,24.1,236h154L159.3,225.5z"/>
	</g>
	<g>
		<linearGradient id="SVGID_4_" gradientUnits="userSpaceOnUse" x1="209.2376" y1="124.9435" x2="74.24" y2="124.9435">
			<stop  offset="0" style="stop-color:#667DB7"/>
			<stop  offset="7.506317e-02" style="stop-color:#6B84BB"/>
			<stop  offset="0.4668" style="stop-color:#84A7CC"/>
			<stop  offset="0.7891" style="stop-color:#93BCD7"/>
			<stop  offset="1" style="stop-color:#99C4DB"/>
		</linearGradient>
		<path class="st3" d="M51.7,102.9h26.4c1.8,0.4,2.7,1.3,2.7,2.9v0.4c0,1.6-1,2.5-3.1,2.8h-9.8v35.1c0,1.6-0.9,2.6-2.8,2.9h-0.1
			c-1.6,0-2.5-1-2.9-3v-35H52c-1.9-0.4-2.9-1.5-2.9-3.2C49.5,103.9,50.3,102.9,51.7,102.9z"/>
		<linearGradient id="SVGID_5_" gradientUnits="userSpaceOnUse" x1="209.2376" y1="130.9744" x2="74.24" y2="130.9744">
			<stop  offset="0" style="stop-color:#667DB7"/>
			<stop  offset="7.506317e-02" style="stop-color:#6B84BB"/>
			<stop  offset="0.4668" style="stop-color:#84A7CC"/>
			<stop  offset="0.7891" style="stop-color:#93BCD7"/>
			<stop  offset="1" style="stop-color:#99C4DB"/>
		</linearGradient>
		<path class="st4" d="M96.5,147h-0.7c-4.7,0-8.7-2.4-12.1-7.1c-1.6-2.6-2.4-5.7-2.4-9.4v-12.1c0.2-2.2,1.2-3.4,3.1-3.4
			c1.8,0.5,2.7,1.4,2.7,2.8v11.8c0,4.7,1.2,7.9,3.8,9.4c1.6,1.3,3.4,1.9,5.4,1.9c3.7,0,6.6-2,8.5-6.1c0.4-1.3,0.6-2.6,0.6-4V118
			c0.4-2,1.4-3,3-3c1.8,0.4,2.8,1.4,2.8,3l0,15.6c0,0-0.6,4.8-4.4,9C103.5,146.1,98.1,147,96.5,147z"/>
		<linearGradient id="SVGID_6_" gradientUnits="userSpaceOnUse" x1="209.2376" y1="130.9153" x2="74.24" y2="130.9153">
			<stop  offset="0" style="stop-color:#667DB7"/>
			<stop  offset="7.506317e-02" style="stop-color:#6B84BB"/>
			<stop  offset="0.4668" style="stop-color:#84A7CC"/>
			<stop  offset="0.7891" style="stop-color:#93BCD7"/>
			<stop  offset="1" style="stop-color:#99C4DB"/>
		</linearGradient>
		<path class="st5" d="M118.7,114.8c1.8,0.5,2.8,1.4,2.8,2.8v0.5c2.3-2.2,5.4-3.2,9.1-3.2c2,0,4.2,0.5,6.5,1.6
			c0.8,0.9,1.2,1.7,1.2,2.5v0.2c-0.3,1.9-1.3,2.9-2.8,2.9h-0.3c-1.9-0.6-3.3-1-4.2-1h-0.6c-3.8,0-6.6,2.1-8.3,6.2
			c-0.4,1.1-0.6,2.3-0.6,3.8v13.1c0,1.6-0.9,2.6-2.8,2.9h-0.2c-1.5,0-2.5-1-2.8-3v-25.8C115.8,116,116.9,114.8,118.7,114.8z"/>
		<linearGradient id="SVGID_7_" gradientUnits="userSpaceOnUse" x1="209.2376" y1="125.0026" x2="74.24" y2="125.0026">
			<stop  offset="0" style="stop-color:#667DB7"/>
			<stop  offset="7.506317e-02" style="stop-color:#6B84BB"/>
			<stop  offset="0.4668" style="stop-color:#84A7CC"/>
			<stop  offset="0.7891" style="stop-color:#93BCD7"/>
			<stop  offset="1" style="stop-color:#99C4DB"/>
		</linearGradient>
		<path class="st6" d="M142.8,103h0.5c1.8,0.4,2.7,1.3,2.7,2.8v12.4c2.3-2.3,5.5-3.5,9.6-3.5c4,0,7.6,1.6,10.8,4.7
			c3.1,3.4,4.6,7.2,4.6,11.4c0,6.1-2.7,10.8-8.2,14.3c-2.4,1.3-4.7,1.9-6.9,1.9h-0.8c-4.2,0-8-2-11.6-6.1c-2.2-3.1-3.3-6.7-3.3-10.8
			v-24.3C140.1,104.3,141,103.4,142.8,103z M146,130.5v0.6c0,4.2,2.1,7.3,6.3,9.3c1.1,0.3,2.1,0.5,3,0.5h0.6c3.9,0,6.8-2.2,8.8-6.5
			c0.3-1.3,0.5-2.3,0.5-3v-0.7c0-4.1-2.1-7.3-6.4-9.3c-1.3-0.3-2.3-0.5-3-0.5h-0.4c-3.9,0-6.8,2.2-8.8,6.5
			C146.2,128.5,146,129.6,146,130.5z"/>
		<linearGradient id="SVGID_8_" gradientUnits="userSpaceOnUse" x1="209.2376" y1="131.1072" x2="74.24" y2="131.1072">
			<stop  offset="0" style="stop-color:#667DB7"/>
			<stop  offset="7.506317e-02" style="stop-color:#6B84BB"/>
			<stop  offset="0.4668" style="stop-color:#84A7CC"/>
			<stop  offset="0.7891" style="stop-color:#93BCD7"/>
			<stop  offset="1" style="stop-color:#99C4DB"/>
		</linearGradient>
		<path class="st7" d="M188,115.2c3.9,0,7.5,1.6,10.7,4.7c3,3.3,4.5,7.1,4.5,11.2c0,6-2.7,10.6-8.1,14c-2.4,1.2-4.6,1.9-6.8,1.9
			h-0.8c-4.1,0-7.9-2-11.4-6c-2.2-3.2-3.2-6.5-3.2-9.9c0-5.2,2.2-9.5,6.5-13C182.1,116.2,185,115.2,188,115.2z M178.7,130.8v0.5
			c0,3.7,1.7,6.5,5.1,8.6c1.2,0.6,2.5,1,3.9,1h0.6c3.6,0,6.4-2,8.3-5.9c0.4-1.2,0.6-2.4,0.6-3.6v-0.5c0-3-1.3-5.6-4-7.7
			c-1.6-1.1-3.4-1.7-5.4-1.7c-4,0-6.9,2.2-8.7,6.5C178.8,128.9,178.7,129.9,178.7,130.8z"/>
	</g>
	<linearGradient id="SVGID_9_" gradientUnits="userSpaceOnUse" x1="204.86" y1="109.3873" x2="29.5397" y2="109.3873">
		<stop  offset="0" style="stop-color:#667DB7"/>
		<stop  offset="7.506317e-02" style="stop-color:#6B84BB"/>
		<stop  offset="0.4668" style="stop-color:#84A7CC"/>
		<stop  offset="0.7891" style="stop-color:#93BCD7"/>
		<stop  offset="1" style="stop-color:#99C4DB"/>
	</linearGradient>
	<path class="st8" d="M36.3,133.2c0-53.6,43.5-97.1,97.1-97.1c28.3,0,53.8,12.1,71.5,31.4c-17.7-24-46.1-39.6-78.2-39.6
		C73,28,29.5,71.5,29.5,125.1c0,25.3,9.7,48.4,25.6,65.7C43.3,174.7,36.3,154.8,36.3,133.2z"/>
	<linearGradient id="SVGID_10_" gradientUnits="userSpaceOnUse" x1="109.9563" y1="131.2523" x2="109.9563" y2="131.2523">
		<stop  offset="0" style="stop-color:#667DB7"/>
		<stop  offset="7.506317e-02" style="stop-color:#6B84BB"/>
		<stop  offset="0.4668" style="stop-color:#84A7CC"/>
		<stop  offset="0.7891" style="stop-color:#93BCD7"/>
		<stop  offset="1" style="stop-color:#99C4DB"/>
	</linearGradient>
	<path class="st9" d="M110,131.3"/>
</g>
</svg>
