<?xml version="1.0" encoding="utf-8"?>
<!-- Generator: Adobe Illustrator 21.0.0, SVG Export Plug-In . SVG Version: 6.00 Build 0)  -->
<svg version="1.1" id="Слой_1" xmlns="http://www.w3.org/2000/svg" xmlns:xlink="http://www.w3.org/1999/xlink" x="0px" y="0px"
	 viewBox="0 0 236 236" style="enable-background:new 0 0 236 236;" xml:space="preserve">
<style type="text/css">
	.st0{fill:#CAD3D8;}
	.st1{clip-path:url(#SVGID_2_);fill:url(#SVGID_3_);}
	.st2{fill:#667DB7;}
	.st3{fill:url(#SVGID_4_);}
	.st4{fill:url(#SVGID_5_);}
	.st5{fill:url(#SVGID_6_);}
</style>
<g>
	<g>
		<path class="st0" d="M3.6,17.1v108.4c0,0,70.7-20.4,118.6-39.1S224.9,35,224.9,35l3.9-3.1V10.5l-6.7-3H11.9L3.6,17.1z"/>
		<g>
			<defs>
				<path id="SVGID_1_" d="M11.7,221.5c-2.4-2.9-1.6-8.8-1.6-12.9V26.7c0-5-0.2-10.9,3.2-14c3-2.7,9.4-3,13.8-3h181.9
					c4.5,0,9.8,0.2,12.8,3c3.3,3.1,4.2,9.1,4.2,14v181.9c0,4.4,0.4,10.9-2.4,13.9c-3.1,3.4-9.6,3.1-14.6,3.1H27.1
					C21.8,225.5,14.8,225.2,11.7,221.5 M24.1,0C10.8,0,0,10.8,0,24.1v187.7C0,225.2,10.8,236,24.1,236h187.7
					c13.3,0,24.1-10.8,24.1-24.1V24.1C236,10.8,225.2,0,211.9,0H24.1z"/>
			</defs>
			<clipPath id="SVGID_2_">
				<use xlink:href="#SVGID_1_"  style="overflow:visible;"/>
			</clipPath>
			
				<linearGradient id="SVGID_3_" gradientUnits="userSpaceOnUse" x1="-30.4997" y1="268.6722" x2="-29.4997" y2="268.6722" gradientTransform="matrix(252.7447 -258.906 -258.906 -252.7447 77264.0313 60253.4063)">
				<stop  offset="0" style="stop-color:#667DB7"/>
				<stop  offset="0.5198" style="stop-color:#99C4DB"/>
				<stop  offset="1" style="stop-color:#667DB7"/>
			</linearGradient>
			<polygon class="st1" points="-118,120.8 115.2,-118 354,115.2 120.8,354 			"/>
		</g>
		<path class="st2" d="M159.3,225.5H27.1c-5.3,0-12.2-0.3-15.3-4.1c-2.4-2.9-1.6-8.8-1.6-12.9v-66.5L0,134.9v77
			C0,225.2,10.8,236,24.1,236h154L159.3,225.5z"/>
	</g>
	<linearGradient id="SVGID_4_" gradientUnits="userSpaceOnUse" x1="86.4881" y1="103.7588" x2="51.1272" y2="68.3979">
		<stop  offset="0" style="stop-color:#667DB7"/>
		<stop  offset="0.2154" style="stop-color:#6A82BA"/>
		<stop  offset="0.4758" style="stop-color:#7491C1"/>
		<stop  offset="0.7582" style="stop-color:#86A9CD"/>
		<stop  offset="1" style="stop-color:#99C4DB"/>
	</linearGradient>
	<path class="st3" d="M46.9,55.5L34.8,72.2h5.4c0,0.2,2.3,15.8,8,22.5c6.6,7.8,21.1,11.2,30.8,6.2c7.8-4.1,10.9-14.5,10.9-14.5
		l1.4-7.3c0,0-8.8,15.1-14.8,17.1c-5.7,2-13.1-0.3-15.7-2.9c-3.6-3.7-6.2-9.9-6.5-15.3c-0.3-5.2-0.3-6.7-0.2-5.8h6.1L46.9,55.5z"/>
	
		<linearGradient id="SVGID_5_" gradientUnits="userSpaceOnUse" x1="3873.3064" y1="103.2588" x2="3837.9456" y2="67.8979" gradientTransform="matrix(-1 0 0 1 4018.1028 0)">
		<stop  offset="0" style="stop-color:#667DB7"/>
		<stop  offset="0.2154" style="stop-color:#6A82BA"/>
		<stop  offset="0.4758" style="stop-color:#7491C1"/>
		<stop  offset="0.7582" style="stop-color:#86A9CD"/>
		<stop  offset="1" style="stop-color:#99C4DB"/>
	</linearGradient>
	<path class="st4" d="M184.4,55l12.1,16.7h-5.4c0,0.2-2.3,15.8-8,22.5c-6.6,7.8-21.1,11.2-30.8,6.2c-7.8-4.1-10.9-14.5-10.9-14.5
		l-1.4-7.3c0,0,8.8,15.1,14.8,17.1c5.7,2,13.1-0.3,15.7-2.9c3.6-3.7,6.2-9.9,6.5-15.3c0.3-5.2,0.3-6.7,0.2-5.8h-6.1L184.4,55z"/>
	<linearGradient id="SVGID_6_" gradientUnits="userSpaceOnUse" x1="116.7255" y1="155.016" x2="116.7255" y2="82.6765">
		<stop  offset="0" style="stop-color:#667DB7"/>
		<stop  offset="0.2154" style="stop-color:#6A82BA"/>
		<stop  offset="0.4758" style="stop-color:#7491C1"/>
		<stop  offset="0.7582" style="stop-color:#86A9CD"/>
		<stop  offset="1" style="stop-color:#99C4DB"/>
	</linearGradient>
	<path class="st5" d="M189.6,142.3L117,177l-73.1-34.6l20.9,0c0,0,12-17.6,18.5-40.4c4.6-16.1,6-29.7,6-29.7l54-0.3
		c0,0,0.3,12.5,4.7,30c4.3,17.5,21.3,40.3,21.3,40.3H189.6z"/>
</g>
</svg>
